<svg xmlns="http://www.w3.org/2000/svg" width="165.324" height="165.313" viewBox="0 0 165.324 165.313">
  <g id="avion" transform="translate(0.001 -0.5)">
    <path id="Trazado_264" data-name="Trazado 264" d="M212.3,103.4l4.73-4.729a7.639,7.639,0,0,0-9.639-11.755l-1-3.345,5.12-5.121A7.633,7.633,0,0,0,201.461,67l-6.067-20.368c2.423-2.333,4.744-4.6,6.931-6.791,6.3-6.3,11.428-12.975,14.431-18.787,5.074-9.823,2.95-15.074.275-17.749s-7.925-4.8-17.749.276c-5.811,3-12.483,8.127-18.786,14.431-2.187,2.187-4.459,4.507-6.791,6.93l-20.369-6.067A7.633,7.633,0,0,0,141.891,8.822l-5.121,5.121-3.346-1A7.638,7.638,0,0,0,121.67,3.307l-4.729,4.729L92.838.857a2.437,2.437,0,0,0-2.419.613l-6.2,6.2a2.46,2.46,0,0,0,.284,3.689l60.813,44.513c-13.712,15.46-26.92,30.939-36.245,42L91.179,90.994a2.437,2.437,0,0,0-2.6.551L81.227,98.9a2.438,2.438,0,0,0,0,3.446l36.766,36.766a2.46,2.46,0,0,0,3.447,0l7.352-7.352a2.437,2.437,0,0,0,.551-2.6l-6.879-17.887c11.059-9.325,26.537-22.534,42-36.247l4.831,6.6a2.437,2.437,0,0,0,3.934-2.878l-5.107-6.978c8.085-7.216,16.069-14.5,23.313-21.357L214.4,127.5l-3.167,3.166-31.56-43.117a2.437,2.437,0,1,0-3.933,2.88l33.239,45.411a2.46,2.46,0,0,0,3.689.284l6.2-6.2a2.438,2.438,0,0,0,.613-2.419ZM145.338,12.269a2.762,2.762,0,0,1,3.906,3.906L148.1,17.318l-6.02-1.794ZM125.117,6.754a2.762,2.762,0,0,1,3.906,3.906l-.752.75-6.019-1.792ZM89.671,9.109l3.167-3.166L169.924,28.9c-6.86,7.245-14.141,15.229-21.358,23.314Zm1.236,87,14.839,5.707c-3.722,4.432-6.577,7.862-8.26,9.891L86.4,100.622Zm10.041,19.061c8.5-10.251,53.406-64.126,82.994-93.714,5.87-5.871,12.278-10.808,17.577-13.545,3.978-2.056,9.3-3.925,12.066-1.16s.894,8.088-1.16,12.066c-2.737,5.3-7.675,11.705-13.547,17.577-29.586,29.586-83.462,74.5-93.712,82.994Zm23.278,14.258-4.509,4.509-11.09-11.09c2.028-1.683,5.459-4.537,9.891-8.259Zm85.452-38.116a2.762,2.762,0,0,1,3.906,3.906l-2.864,2.864-1.794-6.019Zm-5.514-20.221A2.762,2.762,0,1,1,208.07,75l-3.257,3.257-1.794-6.02Zm0,0" transform="translate(-54.517 0)" fill="#476a6f"/>
    <path id="Trazado_265" data-name="Trazado 265" d="M407.99,433.707l-20.8,20.8a2.438,2.438,0,1,0,3.447,3.447l20.8-20.8a2.438,2.438,0,1,0-3.447-3.447Zm0,0" transform="translate(-261.692 -292.843)" fill="#476a6f"/>
    <path id="Trazado_266" data-name="Trazado 266" d="M395.587,404.948a2.437,2.437,0,0,0-3.446-3.446l-13,13a2.438,2.438,0,1,0,3.447,3.447Zm0,0" transform="translate(-256.241 -271.036)" fill="#476a6f"/>
    <path id="Trazado_267" data-name="Trazado 267" d="M379.61,364.692a2.438,2.438,0,1,0-3.447-3.447l-9.1,9.1a2.438,2.438,0,0,0,3.447,3.447Zm0,0" transform="translate(-248.063 -243.778)" fill="#476a6f"/>
    <path id="Trazado_268" data-name="Trazado 268" d="M24.958,51.27a2.439,2.439,0,0,0-3.447,0l-20.8,20.8a2.435,2.435,0,0,0,0,3.446,2.462,2.462,0,0,0,3.447,0l20.8-20.8a2.439,2.439,0,0,0,0-3.447Zm0,0" transform="translate(0 -33.894)" fill="#476a6f"/>
    <path id="Trazado_269" data-name="Trazado 269" d="M73.535,83.475a2.435,2.435,0,0,0-3.446,0l-13,13a2.437,2.437,0,1,0,3.446,3.446l13-13a2.437,2.437,0,0,0,0-3.447Zm0,0" transform="translate(-38.178 -55.699)" fill="#476a6f"/>
    <path id="Trazado_270" data-name="Trazado 270" d="M109.406,120.175a2.462,2.462,0,0,0,3.447,0l9.1-9.1a2.438,2.438,0,0,0-3.447-3.447l-9.1,9.1a2.439,2.439,0,0,0,0,3.447Zm0,0" transform="translate(-73.597 -72.055)" fill="#476a6f"/>
  </g>
</svg>
