<?xml version="1.0" encoding="utf-8"?>
<svg width="96" height="96" viewBox="0 0 96 96" xmlns="http://www.w3.org/2000/svg">
  <defs>
    <clipPath id="clip-path">
      <rect id="Rectángulo_87" data-name="Rectángulo 87" width="96" height="96" transform="translate(635 2725)" fill="#476a6f"/>
    </clipPath>
  </defs>
  <g id="icon-03" transform="translate(-635 -2725)" clip-path="url(#clip-path)">
    <g id="secure-shield" transform="translate(635 2725)">
      <g id="Grupo_172" data-name="Grupo 172">
        <g id="Grupo_171" data-name="Grupo 171">
          <path id="Trazado_258" data-name="Trazado 258" d="M87.449,16.577A159.69,159.69,0,0,1,49.027.28a2.018,2.018,0,0,0-2.053,0,155.317,155.317,0,0,1-38.423,16.3,2.019,2.019,0,0,0-1.486,1.948V39.158a59.36,59.36,0,0,0,18.026,43.37C33.944,91.2,44.256,96,48,96S62.057,91.2,70.91,82.528a59.36,59.36,0,0,0,18.025-43.37V18.525A2.019,2.019,0,0,0,87.449,16.577ZM84.9,39.158A55.4,55.4,0,0,1,68.083,79.643C59.377,88.173,50.069,91.961,48,91.961S36.623,88.173,27.917,79.643A55.4,55.4,0,0,1,11.1,39.158v-19.1A159.039,159.039,0,0,0,48,4.359a164.072,164.072,0,0,0,36.9,15.7Z" style="fill: rgb(77, 60, 65);"/>
          <path id="Trazado_259" data-name="Trazado 259" d="M30.1,19.832a2.019,2.019,0,0,0-2.619-1.139c-3.607,1.421-7.31,2.73-11.005,3.889a2.02,2.02,0,0,0-1.415,1.927v7.8a2.019,2.019,0,1,0,4.039,0V25.984c3.315-1.072,6.626-2.259,9.862-3.534A2.019,2.019,0,0,0,30.1,19.832Z" style="fill: rgb(77, 60, 65);"/>
          <path id="Trazado_260" data-name="Trazado 260" d="M33.937,20.215a2.02,2.02,0,0,0,.81-.17l.037-.016a2.019,2.019,0,1,0-1.631-3.695l-.033.014a2.019,2.019,0,0,0,.816,3.867Z" style="fill: rgb(77, 60, 65);"/>
          <path id="Trazado_261" data-name="Trazado 261" d="M72.06,65.115a2.02,2.02,0,0,0-2.8.586,49.151,49.151,0,0,1-5.8,7.249A51.58,51.58,0,0,1,57.669,78.1a2.019,2.019,0,1,0,2.449,3.212,55.662,55.662,0,0,0,6.247-5.558,53.139,53.139,0,0,0,6.281-7.847A2.019,2.019,0,0,0,72.06,65.115Z" style="fill: rgb(77, 60, 65);"/>
          <path id="Trazado_262" data-name="Trazado 262" d="M52.979,81.27l-.116.068a2.019,2.019,0,1,0,2.023,3.495l.134-.079a2.019,2.019,0,1,0-2.041-3.485Z" style="fill: rgb(77, 60, 65);"/>
          <path id="Trazado_263" data-name="Trazado 263" d="M34.235,43.878a6.567,6.567,0,0,0-9.286,9.287L36.873,65.089a6.568,6.568,0,0,0,9.287,0L71.052,40.2a6.567,6.567,0,0,0-9.287-9.286L41.516,51.159ZM64.621,33.766A2.528,2.528,0,1,1,68.2,37.341L43.3,62.233a2.53,2.53,0,0,1-3.575,0L27.8,50.31a2.528,2.528,0,0,1,3.575-3.575l8.708,8.709a2.019,2.019,0,0,0,2.856,0Z" style="fill: rgb(77, 60, 65);"/>
        </g>
      </g>
    </g>
  </g>
</svg>