<svg xmlns="http://www.w3.org/2000/svg" xmlns:xlink="http://www.w3.org/1999/xlink" width="118" height="96" viewBox="0 0 118 96">
  <defs>
    <clipPath id="clip-path">
      <rect id="Rectángulo_89" data-name="Rectángulo 89" width="118" height="96" transform="translate(1096.998 2735.998)" fill="#476a6f"/>
    </clipPath>
  </defs>
  <g id="icon-05" transform="translate(-1096.998 -2735.998)" clip-path="url(#clip-path)">
    <g id="honesty" transform="translate(1097 2741.233)">
      <path id="Trazado_225" data-name="Trazado 225" d="M95.712,55.818l-9.474,9.474c-.124-.15-.255-.3-.4-.436L73.608,52.621a1.732,1.732,0,0,0-2.449,2.449L83.394,67.3a2.7,2.7,0,1,1-3.815,3.815l-6.8-6.8a1.732,1.732,0,0,0-2.449,2.449l6.8,6.8h0a2.7,2.7,0,0,1-3.815,3.814l-6.8-6.8a1.732,1.732,0,0,0-2.449,2.449l6.8,6.8a2.7,2.7,0,1,1-3.815,3.815l-6.8-6.8A1.732,1.732,0,1,0,57.8,79.3l6.8,6.8a2.7,2.7,0,1,1-3.814,3.815l-4.4-4.4a6.1,6.1,0,0,0-.915-7.437l-.1-.1a6.078,6.078,0,0,0-4.915-1.749,6.079,6.079,0,0,0-4.611-5.492,6.092,6.092,0,0,0-8.314-7.682A6.084,6.084,0,0,0,27.365,60.4l-.714.714-.521-.521a4.4,4.4,0,0,1-1.3-3.135V52.938a1.732,1.732,0,0,0-.507-1.225L16.93,44.32l2.079-2.079a1.732,1.732,0,0,0-2.449-2.449l-2.785,2.785a1.349,1.349,0,0,1-1.905,0L2.957,33.664A1.732,1.732,0,0,0,.507,36.113L9.42,45.026a4.781,4.781,0,0,0,4.574,1.257l7.373,7.373v3.8A7.847,7.847,0,0,0,23.68,63.04l.521.521-.58.58a6.085,6.085,0,0,0,4.3,10.389l.074,0c0,.026,0,.051,0,.077a6.087,6.087,0,0,0,6.088,6.087l.077,0a6.075,6.075,0,0,0,6.083,6.159l.077,0A6.069,6.069,0,0,0,42.1,91.229l.1.1a6.088,6.088,0,0,0,8.609,0l3.248-3.248,4.276,4.276A6.157,6.157,0,0,0,68.851,87.9l.108,0a6.154,6.154,0,0,0,6.156-6.269l.108,0a6.156,6.156,0,0,0,6.161-6.158c0-.036,0-.072,0-.108l.105,0A6.15,6.15,0,0,0,87.63,68.8L98.162,58.267a1.732,1.732,0,0,0-2.45-2.45ZM26.07,70.3a2.624,2.624,0,0,1,0-3.71l3.743-3.743a2.624,2.624,0,1,1,3.711,3.71L29.781,70.3a2.627,2.627,0,0,1-3.711,0Zm8.015,6.928a2.624,2.624,0,0,1-1.855-4.479l3.743-3.743L38.3,66.679a2.624,2.624,0,0,1,3.71,3.711L35.941,76.46a2.607,2.607,0,0,1-1.855.768Zm4.3,5.391a2.627,2.627,0,0,1,0-3.711l4.132-4.132a2.624,2.624,0,0,1,3.711,3.71L42.1,82.619a2.626,2.626,0,0,1-3.71,0Zm9.974,6.264a2.623,2.623,0,0,1-3.71,0l-.1-.1a2.626,2.626,0,0,1,0-3.711l4.131-4.131,0,0,.518-.519a2.627,2.627,0,0,1,3.711,0l.1.1a2.626,2.626,0,0,1,0,3.711Z" transform="translate(0 -8.637)" fill="#476a6f"/>
      <path id="Trazado_226" data-name="Trazado 226" d="M113.523,45.532a1.732,1.732,0,0,0-2.449,0l-6.49,6.49a.236.236,0,0,1-.328,0L81.31,30.108a.234.234,0,0,1,0-.336L94.916,16.164a1.732,1.732,0,1,0-2.449-2.449L78.857,27.324a3.69,3.69,0,0,0-.321,4.858l-6.228,6.108L66.44,35.017a5.172,5.172,0,0,0-2.515-.654H47.253l-1.269-1.269a11.676,11.676,0,0,0-4.125-2.672l-4.616-1.759-2.133-2.133a4.815,4.815,0,0,0-.723-5.867l-6.95-6.95a1.732,1.732,0,1,0-2.449,2.449l6.95,6.95a1.349,1.349,0,0,1,0,1.905L17.814,39.143a1.732,1.732,0,0,0,2.45,2.449l12.5-12.5,2.288,2.288a1.735,1.735,0,0,0,.608.394l4.962,1.89a8.231,8.231,0,0,1,2.844,1.822c-.105.088-.208.18-.307.278l-6.587,6.587a6.92,6.92,0,0,0,9.289,10.24l4.985-4.1h5.192l5.933,5.933a1.732,1.732,0,0,0,2.45-2.449l-4.286-4.286a1.73,1.73,0,0,0-1.46-2.661h-8.45a1.731,1.731,0,0,0-1.1.394l-5.464,4.492a3.457,3.457,0,0,1-4.64-5.115l6.587-6.587a1.3,1.3,0,0,1,.923-.382h17.39a1.7,1.7,0,0,1,.827.215l6.49,3.62a2.526,2.526,0,0,0,2.981-.4l6.784-6.653L99.685,52.451,96.966,55.17a1.732,1.732,0,0,0,2.45,2.449l2.8-2.8a3.717,3.717,0,0,0,4.82-.35l6.491-6.49a1.733,1.733,0,0,0,0-2.45Z" transform="translate(3.965 -13.207)" fill="#476a6f"/>
    </g>
  </g>
</svg>
