<svg xmlns="http://www.w3.org/2000/svg" width="162.098" height="161.065" viewBox="0 0 162.098 161.065">
  <g id="inspection_of_goods" transform="translate(-2 -2)">
    <path id="Trazado_288" data-name="Trazado 288" d="M12.684,26.716A2.684,2.684,0,0,0,10,29.4V45.507a2.684,2.684,0,0,0,2.684,2.684H28.791a2.684,2.684,0,0,0,2.684-2.684V32.756L43.824,23.5,40.6,19.2,30.079,27.092a2.607,2.607,0,0,0-1.289-.376ZM22.348,39.6l3.758-2.819v6.04H15.369V32.085h8.053l-4.3,3.221Z" transform="translate(13.475 28.972)" fill="#476a6f"/>
    <path id="Trazado_289" data-name="Trazado 289" d="M30.079,39.092a2.607,2.607,0,0,0-1.289-.376H12.684A2.684,2.684,0,0,0,10,41.4V57.507a2.684,2.684,0,0,0,2.684,2.684H28.791a2.684,2.684,0,0,0,2.684-2.684V44.756L43.824,35.5,40.6,31.2ZM26.106,54.823H15.369V44.085h8.053l-4.3,3.221,3.221,4.3,3.758-2.819Z" transform="translate(13.475 49.185)" fill="#476a6f"/>
    <path id="Trazado_290" data-name="Trazado 290" d="M40.6,43.2,30.079,51.092a2.606,2.606,0,0,0-1.289-.376H12.684A2.684,2.684,0,0,0,10,53.4V69.507a2.684,2.684,0,0,0,2.684,2.684H28.791a2.684,2.684,0,0,0,2.684-2.684V56.756L43.824,47.5Zm-14.5,23.623H15.369V56.085h8.053l-4.3,3.221,3.221,4.3,3.758-2.819Z" transform="translate(13.475 69.398)" fill="#476a6f"/>
    <path id="Trazado_291" data-name="Trazado 291" d="M26,20H63.582v5.369H26Z" transform="translate(40.426 30.319)" fill="#476a6f"/>
    <path id="Trazado_292" data-name="Trazado 292" d="M26,26H63.582v5.369H26Z" transform="translate(40.426 40.426)" fill="#476a6f"/>
    <path id="Trazado_293" data-name="Trazado 293" d="M26,32H52.844v5.369H26Z" transform="translate(40.426 50.532)" fill="#476a6f"/>
    <path id="Trazado_294" data-name="Trazado 294" d="M26,38H36.738v5.369H26Z" transform="translate(40.426 60.639)" fill="#476a6f"/>
    <path id="Trazado_295" data-name="Trazado 295" d="M163.312,44.245l-7.594-7.594a2.684,2.684,0,0,0-3.8,0L125.483,63.089V26.16a8.053,8.053,0,0,0-8.053-8.053H93.27V15.422a2.684,2.684,0,0,0-2.684-2.684H79.848V4.684A2.684,2.684,0,0,0,77.164,2H50.319a2.684,2.684,0,0,0-2.684,2.684v8.053H36.9a2.684,2.684,0,0,0-2.684,2.684v2.684H10.053A8.053,8.053,0,0,0,2,26.16V155.012a8.053,8.053,0,0,0,8.053,8.053H117.43a8.053,8.053,0,0,0,8.053-8.053V85.869L163.312,48.04a2.684,2.684,0,0,0,0-3.8ZM85.485,118.273l-3.8-3.8L144.33,51.836l3.8,3.8Zm-7.06.537,2.73,2.73-6.826,4.1Zm39-95.334a2.684,2.684,0,0,1,2.684,2.684v42.3l-5.369,5.369v-42.3a2.684,2.684,0,0,0-2.684-2.684H93.27V23.475ZM53,7.369H74.479v5.369H53ZM39.582,18.106H87.9V34.213H39.582Zm51,21.475A2.684,2.684,0,0,0,93.27,36.9V34.213h16.106V79.2L76,112.576a2.684,2.684,0,0,0-.4.518L64.2,132.076a2.666,2.666,0,0,0,2.223,4.051v.094h37.582v-5.369H76.066l10.8-6.483a2.685,2.685,0,0,0,.518-.4l21.991-21.991v44.983H18.106V34.213H34.213V36.9A2.684,2.684,0,0,0,36.9,39.582Zm29.529,115.43a2.684,2.684,0,0,1-2.684,2.684H10.053a2.684,2.684,0,0,1-2.684-2.684V26.16a2.684,2.684,0,0,1,2.684-2.684h24.16v5.369H15.422a2.684,2.684,0,0,0-2.684,2.684V149.643a2.684,2.684,0,0,0,2.684,2.684h96.639a2.684,2.684,0,0,0,2.684-2.684V96.607l5.369-5.369ZM151.922,51.836l-3.8-3.8,5.694-5.7,3.8,3.8Z" transform="translate(0 0)" fill="#476a6f"/>
  </g>
</svg>
