<svg xmlns="http://www.w3.org/2000/svg" width="208.26" height="62.619" viewBox="0 0 208.26 62.619">
  <g id="logo_header" transform="translate(-7.284 -23.98)">
    <g id="Grupo_2" data-name="Grupo 2" transform="translate(7.284 23.98)">
      <path id="Trazado_1" data-name="Trazado 1" d="M155.6,193.666a4.971,4.971,0,0,1-1.857-.088,10.914,10.914,0,0,1-2.735-1.1,14.832,14.832,0,0,0-3.751-1.571c-.1-.022-.2-.032-.3-.051.106-.055.207-.109.3-.159a7.692,7.692,0,0,1,1.03-.47,8.01,8.01,0,0,1,3.414-.467,6.554,6.554,0,0,1,1.281.205l-.315-.121a7.284,7.284,0,0,0-.939-.265,7.832,7.832,0,0,0-3.616.088,8.14,8.14,0,0,0-1.156.4,3.543,3.543,0,0,1-1.1.353,10.25,10.25,0,0,1-1.309-.014,9.455,9.455,0,0,0-1.524.1,17.2,17.2,0,0,0-2.379.547c-1.249.233-2.524.527-3.828.775a6.616,6.616,0,0,1-2.663.126,9.121,9.121,0,0,1-2.653-1.129,4.74,4.74,0,0,1-1.975-2.166c-.091-.192-.2-.407-.317-.653l-.011-.024c-.063-.134-.126-.27-.189-.405a32.991,32.991,0,0,1-2.327-7.25c.028-.028.054-.062.084-.088a4.709,4.709,0,0,1,1.194-.737,12.856,12.856,0,0,1,1.465-.527c.521-.158,1.038-.309,1.541-.439a11.556,11.556,0,0,1,2.915-.421,6.383,6.383,0,0,1,1.352.144,13.92,13.92,0,0,1,1.363.383c.464.15.94.306,1.435.435a8.169,8.169,0,0,0,1.522.259,8.365,8.365,0,0,0,1.161-.006,6.344,6.344,0,0,0,1.576-.144l.164-.044.134-.041.265-.079.516-.145a9.447,9.447,0,0,1,.983-.215,4.493,4.493,0,0,1,1.767.032l1.691.41a6.288,6.288,0,0,0,1.459.219,5.553,5.553,0,0,0,1.109-.087,5,5,0,0,0,.674-.169c.15-.049.227-.079.227-.079l-.238.021c-.077.006-.174.013-.287.014s-.244,0-.39,0a6.224,6.224,0,0,1-1.044-.129,6.607,6.607,0,0,1-1.314-.443c-.492-.2-1.017-.418-1.607-.645-.022-.008-.046-.013-.068-.021.9-.364,1.721-.734,2.464-1.081.853-.4,1.609-.768,2.267-1.095l.626-.312c.2-.1.383-.2.555-.3a7.158,7.158,0,0,0,1.174-.8,4.6,4.6,0,0,0,.383-.368l.12-.134-.136.118a4.575,4.575,0,0,1-.421.312,5.872,5.872,0,0,1-.738.416c-.3.147-.658.3-1.068.45l-.653.24c-.688.252-1.478.541-2.36.852s-1.857.644-2.921.959q-.532.159-1.095.308c-.358.095-.726.186-1.1.27-.055.009-.11.016-.166.022s-.11.011-.166.022c-.188.036-.375.076-.563.12l-.1.025-.188.035-.063.011a11.019,11.019,0,0,1-1.234.112,7.3,7.3,0,0,1-1.245-.063,9.768,9.768,0,0,1-2.221-.655c.257-.106.508-.216.748-.328a16.931,16.931,0,0,0,1.492-.811c.451-.276.858-.554,1.221-.819.181-.133.35-.263.508-.39a11.481,11.481,0,0,0,1.107-.992,4.382,4.382,0,0,0,.38-.437l.115-.164-.162.115c-.1.074-.27.172-.483.29-.32.178-.759.4-1.294.642-.178.082-.368.166-.566.252-.6.259-1.284.54-2.04.812q-.379.137-.778.268c-.53.183-1.092.336-1.667.476-.267.057-.538.109-.808.147a7.41,7.41,0,0,1-.8.076c-.17-.019-.339-.044-.508-.052a12.864,12.864,0,0,0-3.41.338c-.557.122-1.1.262-1.648.409a14.107,14.107,0,0,0-1.715.565,7.936,7.936,0,0,0-.857.42c-.055-.439-.09-.874-.126-1.309a26.943,26.943,0,0,1,.158-5.947,1.794,1.794,0,0,0,.017-.271,6.076,6.076,0,0,1,1.131-.32,12.959,12.959,0,0,1,2.44-.2c.412,0,.825.014,1.237.035s.825.047,1.234.073a25.413,25.413,0,0,0,4.822.019,8.971,8.971,0,0,0,4.09-1.437c.546-.375,1.006-.77,1.439-1.129s.841-.711,1.215-1.049a15.294,15.294,0,0,0,1.787-1.869q.166-.208.3-.4a8.091,8.091,0,0,0,.592-.959c.09-.162.144-.293.186-.379l.06-.129-.08.118c-.055.077-.128.2-.241.342a9.187,9.187,0,0,1-1.06,1.189,16.419,16.419,0,0,1-1.959,1.571c-.4.282-.841.574-1.309.883-.235.155-.475.315-.721.472s-.5.309-.756.448a6.964,6.964,0,0,1-1.691.645,9.466,9.466,0,0,1-1.967.257,27.51,27.51,0,0,1-4.538-.352c-.423-.052-.86-.1-1.306-.15l.039-.028c.229-.159.45-.308.669-.434a4.127,4.127,0,0,1,1.357-.5c.5-.107,1.057-.183,1.607-.353a7.169,7.169,0,0,0,1.491-.65,8.6,8.6,0,0,0,1.219-.852q.272-.227.516-.462c.162-.156.315-.314.461-.47.287-.317.543-.631.773-.934a19.592,19.592,0,0,0,1.478-2.338c.222-.407.39-.726.5-.942s.169-.331.169-.331h0s-.175.229-.5.651c-.109.14-.233.3-.375.487a19.626,19.626,0,0,1-2.592,2.843,9.113,9.113,0,0,1-2.142,1.394,6.451,6.451,0,0,1-1.306.437,7.047,7.047,0,0,1-.718.115c-.254.032-.524.058-.811.1a6.258,6.258,0,0,0-.9.189,5.186,5.186,0,0,0-.9.366,9.32,9.32,0,0,0-.808.469l-.191.123c-.063.041-.128.084-.174.11-.1.062-.211.123-.328.181a12.308,12.308,0,0,1-2.32.831c-.069.008-.137.009-.207.019l.006-.008h0c-.024,0-.043.008-.066.014s-.038,0-.058,0c-.2.032-.4.076-.609.121-.109.017-.207.028-.308.039-.047,0-.1.014-.145.019-.08.008-.151.006-.226.008-.055,0-.115.008-.166.006a1.62,1.62,0,0,1-.183-.02c-.05-.006-.1-.008-.151-.017a.937.937,0,0,1-.137-.049,1.167,1.167,0,0,1-.137-.049.734.734,0,0,1-.1-.073.858.858,0,0,1-.12-.091,7.675,7.675,0,0,1-.156-.238c-.011-.025-.017-.058-.027-.085a1.473,1.473,0,0,1-.071-.235c0-.021,0-.046-.006-.068a2.72,2.72,0,0,1-.032-.345c0-.069,0-.145,0-.219s.016-.145.019-.216a3.971,3.971,0,0,1,.29-.871c.044-.126.1-.26.159-.394s.129-.279.191-.391a3.244,3.244,0,0,1,.426-.628,4.256,4.256,0,0,1,1.3-.92c.14-.076.281-.15.42-.226.12-.065.243-.128.369-.185.251-.117.513-.221.779-.316,1.069-.386,2.2-.592,3.316-.984a6.141,6.141,0,0,0,1.563-.8,4.635,4.635,0,0,0,1.131-1.188,6.115,6.115,0,0,0,.369-.642,8.078,8.078,0,0,0,.615-1.809c.082-.369.144-.713.189-1.029s.069-.606.1-.864.049-.489.068-.688c.06-.6.091-.92.091-.92h0l-.274.88c-.06.191-.128.41-.205.658s-.159.521-.251.819-.215.614-.35.945a6.94,6.94,0,0,1-1.182,2.011,3.746,3.746,0,0,1-.45.431,3.547,3.547,0,0,1-.525.352,5.18,5.18,0,0,1-1.3.468c-.571.136-1.221.229-1.913.347a3.971,3.971,0,0,0,.213-.394,3.219,3.219,0,0,0,.26-1.432,3.153,3.153,0,0,0-.114-.678c-.057-.207-.128-.394-.191-.566s-.129-.333-.183-.484a3.284,3.284,0,0,1-.128-.432,2.937,2.937,0,0,1-.074-.841,4.984,4.984,0,0,1,.334-1.513,10.749,10.749,0,0,1,.5-1.123c.156-.3.286-.54.372-.7l.134-.243-.047.052-.14.151c-.123.134-.3.334-.522.6a9.025,9.025,0,0,0-.745,1.04,5.183,5.183,0,0,0-.667,1.628,3.643,3.643,0,0,0-.069,1.077,3.939,3.939,0,0,0,.084.568c.039.185.085.363.125.533s.077.336.1.494a1.887,1.887,0,0,1,.022.446,2.057,2.057,0,0,1-.256.86,3.012,3.012,0,0,1-.62.784,3.819,3.819,0,0,1-.415.327l-.252.161-.292.189c-.21.14-.4.278-.6.418l-.229.1a9.193,9.193,0,0,0-.954.489,4.713,4.713,0,0,0-.969.767,4.92,4.92,0,0,0-.584.754,4.919,4.919,0,0,0-.584-.754,4.672,4.672,0,0,0-.969-.767,9.19,9.19,0,0,0-.954-.489l-.229-.1c-.2-.14-.39-.278-.6-.418l-.29-.189-.252-.161a3.671,3.671,0,0,1-.415-.327,3.005,3.005,0,0,1-.62-.784,2.057,2.057,0,0,1-.256-.86,3.059,3.059,0,0,1,.125-.94c.041-.17.087-.35.125-.533a3.941,3.941,0,0,0,.084-.568,3.643,3.643,0,0,0-.069-1.077,5.2,5.2,0,0,0-.667-1.628,9.02,9.02,0,0,0-.745-1.04c-.11-.134-.21-.252-.3-.352s-.164-.185-.224-.251l-.14-.151-.047-.052.134.243c.087.159.216.394.372.7a10.431,10.431,0,0,1,.5,1.123,4.985,4.985,0,0,1,.334,1.513,2.936,2.936,0,0,1-.074.841,6.382,6.382,0,0,1-.312.916c-.065.172-.134.36-.191.566a3.154,3.154,0,0,0-.114.678,3.215,3.215,0,0,0,.26,1.432,3.647,3.647,0,0,0,.213.394c-.692-.12-1.342-.213-1.913-.347a5.22,5.22,0,0,1-1.3-.469,3.549,3.549,0,0,1-.525-.352,3.638,3.638,0,0,1-.45-.431,6.906,6.906,0,0,1-1.181-2.011c-.136-.331-.251-.648-.35-.945s-.175-.573-.251-.819c-.232-.743-.385-1.237-.448-1.437l-.032-.1h0l.041.416c.027.273.066.674.118,1.191.028.259.057.549.1.864s.107.659.189,1.029a9.657,9.657,0,0,0,.342,1.178,6.172,6.172,0,0,0,.64,1.273,4.609,4.609,0,0,0,1.131,1.188,6.167,6.167,0,0,0,1.563.8c1.112.393,2.246.6,3.316.984.267.095.527.2.779.315q.189.088.369.185l.42.226a4.257,4.257,0,0,1,1.3.92,3.246,3.246,0,0,1,.426.628c.062.112.129.257.191.391s.115.268.159.394a3.972,3.972,0,0,1,.29.871c0,.071.011.142.019.216s0,.15,0,.219a2.282,2.282,0,0,1-.032.345c0,.021,0,.047-.006.068a1.328,1.328,0,0,1-.071.235c-.009.027-.016.06-.027.085a.859.859,0,0,1-.1.151.69.69,0,0,1-.058.087,23.3,23.3,0,0,1-.216.164.937.937,0,0,1-.137.049,1.17,1.17,0,0,1-.137.049c-.046.009-.1.011-.151.017a1.624,1.624,0,0,1-.183.021c-.052,0-.112,0-.167-.006-.074,0-.145,0-.226-.008-.046,0-.1-.013-.145-.019-.1-.011-.2-.022-.308-.039-.205-.047-.409-.09-.609-.121-.019,0-.038,0-.058,0s-.043-.008-.066-.014h0l.006.008c-.069-.009-.137-.011-.207-.019a12.379,12.379,0,0,1-2.32-.831c-.117-.058-.23-.12-.328-.181-.046-.027-.11-.068-.174-.11l-.191-.123c-.257-.162-.524-.323-.808-.469a5.187,5.187,0,0,0-.9-.366,6.292,6.292,0,0,0-.9-.189c-.287-.041-.557-.068-.811-.1a7.113,7.113,0,0,1-.718-.115,6.45,6.45,0,0,1-1.306-.437,9.1,9.1,0,0,1-2.142-1.394,19.625,19.625,0,0,1-2.592-2.843l-.65-.844-.227-.295h0s.057.115.169.331.281.535.5.942a19.385,19.385,0,0,0,1.478,2.338c.229.3.486.617.773.934.145.156.3.314.461.47s.334.311.516.462a8.51,8.51,0,0,0,1.219.852,7.168,7.168,0,0,0,1.491.65c.549.17,1.107.246,1.607.353a4.162,4.162,0,0,1,1.357.5c.219.126.44.274.669.434l.039.028c-.446.046-.883.1-1.306.15a27.679,27.679,0,0,1-4.538.352,9.466,9.466,0,0,1-1.967-.257,6.965,6.965,0,0,1-1.691-.645c-.259-.14-.51-.292-.756-.448s-.484-.315-.721-.472c-.469-.309-.907-.6-1.309-.883a16.423,16.423,0,0,1-1.959-1.571,9.072,9.072,0,0,1-1.06-1.189c-.114-.145-.186-.265-.241-.342s-.08-.118-.08-.118l.06.129c.041.085.095.216.186.379s.2.366.345.595a9.284,9.284,0,0,0,.549.767,15.291,15.291,0,0,0,1.787,1.869c.372.338.781.686,1.215,1.049s.891.756,1.439,1.129a8.984,8.984,0,0,0,4.09,1.437,25.413,25.413,0,0,0,4.822-.019c.819-.054,1.648-.106,2.472-.107a12.831,12.831,0,0,1,2.44.2,6.073,6.073,0,0,1,1.131.32,1.777,1.777,0,0,0,.017.271,27.136,27.136,0,0,1,.158,5.947c-.036.435-.071.871-.126,1.309a7.514,7.514,0,0,0-.857-.42,13.829,13.829,0,0,0-1.715-.565c-.547-.147-1.092-.287-1.648-.409a12.928,12.928,0,0,0-3.41-.338c-.169.009-.339.033-.508.052a7.414,7.414,0,0,1-.8-.076c-.27-.039-.541-.09-.808-.147-.574-.142-1.136-.293-1.667-.476q-.4-.132-.778-.268c-.756-.273-1.443-.554-2.04-.812-.2-.087-.388-.17-.566-.252-.535-.245-.972-.464-1.294-.642-.213-.118-.379-.216-.483-.29l-.162-.115.115.164a4.379,4.379,0,0,0,.38.437,11.7,11.7,0,0,0,1.107.992c.158.126.328.256.508.39.363.265.768.543,1.221.819a16.51,16.51,0,0,0,1.492.811c.24.112.491.221.748.328a9.79,9.79,0,0,1-2.221.655,8.117,8.117,0,0,1-1.866.025c-.205-.019-.41-.044-.614-.073l-.063-.011c-.063-.011-.125-.025-.188-.035l-.1-.025c-.186-.043-.375-.084-.563-.12-.055-.011-.11-.016-.166-.022s-.11-.013-.166-.022c-.374-.084-.74-.175-1.1-.27q-.563-.149-1.095-.308c-1.065-.316-2.04-.65-2.921-.959q-.44-.156-.85-.3c-.819-.3-1.544-.562-2.163-.789-.41-.151-.767-.3-1.068-.45a6.073,6.073,0,0,1-.738-.416,4.882,4.882,0,0,1-.421-.312c-.09-.077-.136-.118-.136-.118l.12.134a4.592,4.592,0,0,0,.383.368A7.157,7.157,0,0,0,95,175c.172.1.356.2.555.295l.626.312c.658.327,1.413.694,2.267,1.095.743.345,1.568.716,2.464,1.081-.022.008-.046.013-.068.021-.59.229-1.115.443-1.607.645a6.508,6.508,0,0,1-1.314.443,6.061,6.061,0,0,1-1.044.129c-.147,0-.276,0-.39,0s-.21-.008-.287-.014l-.238-.02s.077.03.227.079a5.524,5.524,0,0,0,.674.169,5.672,5.672,0,0,0,1.109.087,4.915,4.915,0,0,0,.7-.062,7.405,7.405,0,0,0,.756-.158l1.691-.41a4.494,4.494,0,0,1,1.767-.032,9.88,9.88,0,0,1,.983.215l.516.145.265.079.134.041.164.044a6.331,6.331,0,0,0,1.576.144,8.372,8.372,0,0,0,1.161.006,8.166,8.166,0,0,0,1.522-.259c.5-.129.97-.287,1.435-.435a13.913,13.913,0,0,1,1.363-.383,6.391,6.391,0,0,1,1.352-.144,11.627,11.627,0,0,1,2.915.421c.5.129,1.021.281,1.541.439a12.672,12.672,0,0,1,1.465.527,5.468,5.468,0,0,1,.642.334,3.9,3.9,0,0,1,.552.4c.03.027.055.058.084.088a32.855,32.855,0,0,1-2.327,7.25c-.062.134-.125.268-.188.4l-.013.027c-.121.246-.226.461-.317.653a4.732,4.732,0,0,1-1.975,2.166,9.164,9.164,0,0,1-2.653,1.129,6.614,6.614,0,0,1-2.663-.126c-1.3-.248-2.579-.541-3.828-.775a17.2,17.2,0,0,0-2.379-.547,9.446,9.446,0,0,0-1.524-.1,10.247,10.247,0,0,1-1.309.014,3.556,3.556,0,0,1-1.1-.353,7.854,7.854,0,0,0-4.772-.491,7.284,7.284,0,0,0-.939.265l-.315.121a6.584,6.584,0,0,1,1.281-.205,8.012,8.012,0,0,1,3.414.467,7.7,7.7,0,0,1,1.03.47c.093.05.194.106.3.159-.1.019-.2.028-.3.05a14.952,14.952,0,0,0-3.751,1.571,10.853,10.853,0,0,1-2.735,1.1,4.97,4.97,0,0,1-1.857.088,3.5,3.5,0,0,1-.64-.153,3.348,3.348,0,0,0,.626.227,4.993,4.993,0,0,0,1.918.109,10.828,10.828,0,0,0,2.925-.864,14.943,14.943,0,0,1,3.679-1.212,13.9,13.9,0,0,1,4.624.205c1.287.241,2.633.618,4.071.987-.721.476-1.29.992-1.879,1.333a14.1,14.1,0,0,1-4.553,1.606,10.042,10.042,0,0,1-1.8.185,8.814,8.814,0,0,0,1.831.09,13.287,13.287,0,0,0,4.939-1.1,29.319,29.319,0,0,1,2.939-1.574,1.8,1.8,0,0,1,.4-.09,13.7,13.7,0,0,0,2.68.114c.511-.093.981-.325,1.445-.431s.975-.174,1.491-.238c.484-.06.983-.112,1.494-.162h0a4.737,4.737,0,0,1,2.571.685,1.608,1.608,0,0,1,.473,1.287c0,.6-1.432,1.289-1.939,1.361a6.328,6.328,0,0,1-1.424,0,26.048,26.048,0,0,0-10.288,1.4c-2.816.907-4.852,2.167-6.453,2.317a4.833,4.833,0,0,1-1.831-.076,3.08,3.08,0,0,1-.615-.21,3.1,3.1,0,0,0,.593.281,4.891,4.891,0,0,0,1.876.278,10.467,10.467,0,0,0,2.945-.625c1.1-.372,2.335-.774,3.734-1.122a28.106,28.106,0,0,1,8.411-.9c-.511.431-.928.852-1.352,1.15a3.636,3.636,0,0,1-1.674.631,7.73,7.73,0,0,0-2,.555,5.985,5.985,0,0,0-1.618,1.081c-.934.874-1.306,1.871-1.98,2.358a8.121,8.121,0,0,1-2,1.041,3.776,3.776,0,0,1-1.417.251,2.38,2.38,0,0,1-.506-.069,2.216,2.216,0,0,0,.5.145,3.817,3.817,0,0,0,1.5-.061,7.99,7.99,0,0,0,2.248-.85c.882-.528,1.4-1.54,2.231-2.145a5.188,5.188,0,0,1,1.44-.781,6.974,6.974,0,0,1,1.783-.331,7.178,7.178,0,0,0,1.1-.189,4.192,4.192,0,0,0,1.139-.5c.692-.432,1.241-.965,1.8-1.339a4.464,4.464,0,0,1,2.257-.724c1.077.077,2.229.4,2.527,1.551a2.155,2.155,0,0,1-.484,1.8c-.068.071-.134.144-.205.211l-.093.09c-.129.12-.263.237-.4.349-.033.028-.066.057-.1.084l-.013.009-1.439,1.011c-.342.249-.716.514-1.074.811a2.529,2.529,0,0,1-.67.274,5.145,5.145,0,0,1-.894.161c-.322.049-.6.065-.94.139a4.5,4.5,0,0,0-1.751.831,4.377,4.377,0,0,0-1.133,1.312,7.922,7.922,0,0,0-.538,1.368,2.983,2.983,0,0,1-.527,1.008,6.555,6.555,0,0,1-.732.689,5.6,5.6,0,0,1-1.15.82,2.262,2.262,0,0,1-.464.178,2.156,2.156,0,0,0,.492-.109,5.48,5.48,0,0,0,1.286-.67,6.375,6.375,0,0,0,.861-.626,3.407,3.407,0,0,0,.748-1.077,7.784,7.784,0,0,1,.631-1.2,3.684,3.684,0,0,1,1.033-.973,3.629,3.629,0,0,1,1.434-.522c.256-.033.6-.033.905-.052.054,0,.114-.006.169-.009a2.486,2.486,0,0,0-.137,1.663l.251.609a1.833,1.833,0,0,1,.148.494,5.426,5.426,0,0,1-.2,1.959,4.807,4.807,0,0,1-.625,1.41,3.346,3.346,0,0,1-.661.743,3.122,3.122,0,0,1-.282.215,2.723,2.723,0,0,0,.325-.153,3.319,3.319,0,0,0,.831-.631,5.675,5.675,0,0,0,1.486-3.606,2.59,2.59,0,0,0-.1-.691c-.052-.192-.106-.39-.161-.59a1.413,1.413,0,0,1,.211-.92,5.492,5.492,0,0,1,2.04-1.611c.893-.549,1.83-1.126,2.8-1.723a7.216,7.216,0,0,0,.9-.67,7.222,7.222,0,0,0,.9.67c.97.6,1.907,1.174,2.8,1.723a5.492,5.492,0,0,1,2.04,1.611,1.413,1.413,0,0,1,.211.92c-.055.2-.109.4-.161.59a2.573,2.573,0,0,0-.1.691,5.675,5.675,0,0,0,1.486,3.606,3.29,3.29,0,0,0,.831.631,2.914,2.914,0,0,0,.325.153,3.118,3.118,0,0,1-.282-.215,3.386,3.386,0,0,1-.661-.743,4.765,4.765,0,0,1-.625-1.41,5.419,5.419,0,0,1-.2-1.959,1.833,1.833,0,0,1,.148-.494l.251-.609a2.468,2.468,0,0,0-.137-1.663c.055,0,.115.006.169.009.3.019.65.019.905.052a3.65,3.65,0,0,1,2.467,1.5,7.775,7.775,0,0,1,.631,1.2,3.364,3.364,0,0,0,.748,1.077,6.373,6.373,0,0,0,.861.626,5.48,5.48,0,0,0,1.286.67,2.138,2.138,0,0,0,.492.109,2.262,2.262,0,0,1-.464-.178,5.6,5.6,0,0,1-1.15-.82,6.555,6.555,0,0,1-.732-.689,2.982,2.982,0,0,1-.527-1.008,7.847,7.847,0,0,0-.538-1.368,4.381,4.381,0,0,0-1.133-1.312,4.509,4.509,0,0,0-1.751-.831c-.342-.076-.618-.09-.94-.139a5.145,5.145,0,0,1-.894-.161,2.559,2.559,0,0,1-.67-.274c-.358-.3-.732-.562-1.074-.811l-1.439-1.011-.013-.009-.1-.084c-.134-.112-.267-.229-.4-.349l-.093-.09c-.071-.068-.137-.14-.205-.211a2.157,2.157,0,0,1-.484-1.8c.3-1.15,1.448-1.475,2.527-1.551a4.469,4.469,0,0,1,2.257.724c.555.374,1.1.907,1.8,1.339a4.218,4.218,0,0,0,1.139.5,7.374,7.374,0,0,0,1.1.189,6.961,6.961,0,0,1,1.783.331,5.229,5.229,0,0,1,1.44.781c.83.6,1.35,1.615,2.23,2.145a8.039,8.039,0,0,0,2.248.85,3.817,3.817,0,0,0,1.5.061,2.216,2.216,0,0,0,.5-.145,2.38,2.38,0,0,1-.506.069,3.776,3.776,0,0,1-1.417-.251,8.067,8.067,0,0,1-2-1.041c-.674-.487-1.046-1.484-1.98-2.358a6.046,6.046,0,0,0-1.618-1.081,7.793,7.793,0,0,0-2-.555,3.671,3.671,0,0,1-1.674-.631c-.423-.3-.839-.719-1.352-1.15a28.209,28.209,0,0,1,8.411.9c1.4.347,2.633.749,3.734,1.122a10.5,10.5,0,0,0,2.945.625,4.86,4.86,0,0,0,1.876-.278,3.1,3.1,0,0,0,.593-.281,3.271,3.271,0,0,1-.615.21,4.864,4.864,0,0,1-1.831.076c-1.6-.148-3.638-1.41-6.453-2.317a26.048,26.048,0,0,0-10.288-1.4,6.238,6.238,0,0,1-1.424,0c-.5-.071-1.939-.763-1.939-1.361a1.608,1.608,0,0,1,.473-1.287,4.752,4.752,0,0,1,2.571-.685h0c.511.05,1.01.1,1.494.162.516.065,1.027.131,1.491.238s.934.338,1.445.431a13.826,13.826,0,0,0,2.68-.114,1.8,1.8,0,0,1,.4.09,29.168,29.168,0,0,1,2.939,1.574,13.287,13.287,0,0,0,4.939,1.1,8.814,8.814,0,0,0,1.831-.09,10.042,10.042,0,0,1-1.8-.185A14.113,14.113,0,0,1,140.3,194.3c-.588-.342-1.158-.857-1.879-1.333,1.437-.369,2.783-.748,4.071-.987a13.9,13.9,0,0,1,4.624-.205,15.009,15.009,0,0,1,3.679,1.212,10.828,10.828,0,0,0,2.925.864,4.993,4.993,0,0,0,1.918-.109,3.355,3.355,0,0,0,.625-.227A4.264,4.264,0,0,1,155.6,193.666Z" transform="translate(-89.825 -149.525)" fill="#4d3c41"/>
      <g id="Grupo_1" data-name="Grupo 1" transform="translate(0)">
        <path id="Trazado_2" data-name="Trazado 2" d="M101.285,261.693c.842.674,2.554,1.347,2.835,1.811a4.572,4.572,0,0,0-1.895-2.989s2.5,1.249,2.582,2.989a2.488,2.488,0,0,0-.659-3.144c-1.656-1.544-3.776-1.376-4.2-2.33C99.952,258.028,100.442,261.019,101.285,261.693Z" transform="translate(-97.363 -238.501)" fill="#8aa254"/>
        <path id="Trazado_3" data-name="Trazado 3" d="M119.8,244.453a3.558,3.558,0,0,0-1.562-2.264s1.978.893,2.1,2.242a1.935,1.935,0,0,0-.609-2.421c-1.333-1.148-2.974-.953-3.33-1.68,0,0,.473,2.306,1.147,2.8S119.572,244.1,119.8,244.453Z" transform="translate(-111.218 -223.593)" fill="#8aa254"/>
        <path id="Trazado_4" data-name="Trazado 4" d="M96.272,306.521a1.934,1.934,0,0,0-1.663-1.861c-1.713-.4-3.076.538-3.729.058,0,0,1.491,1.822,2.319,1.95a23.151,23.151,0,0,1,2.611.12,3.554,3.554,0,0,0-2.436-1.278S95.54,305.381,96.272,306.521Z" transform="translate(-89.724 -277.69)" fill="#8aa254"/>
        <path id="Trazado_5" data-name="Trazado 5" d="M85.109,288.558a15.67,15.67,0,0,1,1.754.08,2.389,2.389,0,0,0-1.636-.86s1.456-.085,1.948.68a1.3,1.3,0,0,0-1.118-1.251c-1.152-.267-2.066.361-2.507.039C83.55,287.247,84.552,288.473,85.109,288.558Z" transform="translate(-83.55 -263.019)" fill="#8aa254"/>
        <path id="Trazado_6" data-name="Trazado 6" d="M172.1,294.035a1.365,1.365,0,0,0-.2-1.749c-.825-.928-1.991-.943-2.172-1.486,0,0,.115,1.656.541,2.068s1.325.866,1.456,1.133a2.509,2.509,0,0,0-.882-1.729S172.145,293.081,172.1,294.035Z" transform="translate(-156.135 -266.102)" fill="#4d7334"/>
        <path id="Trazado_7" data-name="Trazado 7" d="M185.716,159.775a2.508,2.508,0,0,0,.391-1.9s.51,1.443-.12,2.163a1.366,1.366,0,0,0,.937-1.491c-.066-1.24-.965-1.98-.768-2.516,0,0-.945,1.366-.869,1.953A16.132,16.132,0,0,1,185.716,159.775Z" transform="translate(-169.235 -152.591)" fill="#8aa254"/>
        <path id="Trazado_8" data-name="Trazado 8" d="M226.74,161.49a2.131,2.131,0,0,0,.814-1.432s.033,1.3-.664,1.715a1.159,1.159,0,0,0,1.148-.959c.273-1.019-.26-1.852.039-2.234,0,0-1.122.855-1.213,1.349A13.846,13.846,0,0,1,226.74,161.49Z" transform="translate(-204.152 -154.739)" fill="#8aa254"/>
        <path id="Trazado_9" data-name="Trazado 9" d="M262.425,139.808s.033,1.3-.664,1.715a1.159,1.159,0,0,0,1.148-.959c.273-1.019-.26-1.852.039-2.234,0,0-1.122.855-1.215,1.349a13.854,13.854,0,0,1-.125,1.562A2.12,2.12,0,0,0,262.425,139.808Z" transform="translate(-233.522 -137.683)" fill="#8aa254"/>
        <path id="Trazado_10" data-name="Trazado 10" d="M235.857,148.545a13.836,13.836,0,0,1,1.5.456,2.133,2.133,0,0,0-1.224-1.1s1.276.246,1.533,1.016a1.158,1.158,0,0,0-.691-1.327c-.935-.484-1.865-.142-2.174-.517C234.8,147.07,235.395,148.349,235.857,148.545Z" transform="translate(-210.941 -145.045)" fill="#8aa254"/>
        <path id="Trazado_11" data-name="Trazado 11" d="M250.694,136.844a1.736,1.736,0,0,0,.088-1.338s.486.94.123,1.492a.941.941,0,0,0,.5-1.109c-.162-.842-.849-1.264-.764-1.65,0,0-.517,1.024-.41,1.418A11.727,11.727,0,0,1,250.694,136.844Z" transform="translate(-223.926 -134.238)" fill="#8aa254"/>
        <path id="Trazado_12" data-name="Trazado 12" d="M220.454,145.163a2.162,2.162,0,0,0,.609-1.56s.224,1.3-.416,1.822a1.177,1.177,0,0,0,1.014-1.133c.125-1.063-.533-1.824-.287-2.253,0,0-1,1.024-1.022,1.535A14.356,14.356,0,0,1,220.454,145.163Z" transform="translate(-198.771 -140.808)" fill="#8aa254"/>
        <path id="Trazado_13" data-name="Trazado 13" d="M271.123,150.3s-.175,2.07-1.353,2.608a1.849,1.849,0,0,0,1.989-1.322c.61-1.57-.09-2.986.453-3.54,0,0-1.929,1.163-2.163,1.931a22.542,22.542,0,0,1-.468,2.458A3.412,3.412,0,0,0,271.123,150.3Z" transform="translate(-240.235 -145.87)" fill="#8aa254"/>
        <path id="Trazado_14" data-name="Trazado 14" d="M205.482,154.072a2.164,2.164,0,0,0-.549-1.582s1.014.845.864,1.656a1.176,1.176,0,0,0,.036-1.519c-.595-.89-1.589-1.043-1.68-1.527,0,0-.1,1.429.218,1.831S205.4,153.827,205.482,154.072Z" transform="translate(-185.117 -148.439)" fill="#8aa254"/>
        <path id="Trazado_15" data-name="Trazado 15" d="M246.941,174.512a.881.881,0,0,0-.478-1.032c-.694-.4-1.412-.175-1.633-.47,0,0,.407.992.751,1.158a10.531,10.531,0,0,1,1.122.4,1.617,1.617,0,0,0-.891-.88S246.773,173.919,246.941,174.512Z" transform="translate(-219.389 -166.893)" fill="#4d7334"/>
        <path id="Trazado_16" data-name="Trazado 16" d="M244.027,161.345c-.8-.483-1.637-.237-1.887-.585,0,0,.45,1.163.846,1.363a12.41,12.41,0,0,1,1.3.491,1.879,1.879,0,0,0-1.016-1.044s1.112.293,1.292.988A1.021,1.021,0,0,0,244.027,161.345Z" transform="translate(-217.123 -156.575)" fill="#8aa254"/>
        <path id="Trazado_17" data-name="Trazado 17" d="M206.1,174.352a12.032,12.032,0,0,1,1.26.492,1.84,1.84,0,0,0-.983-1.032s1.084.3,1.254.978a1,1,0,0,0-.506-1.189c-.775-.48-1.6-.248-1.839-.592C205.292,173.01,205.719,174.152,206.1,174.352Z" transform="translate(-186.086 -166.893)" fill="#8aa254"/>
        <path id="Trazado_18" data-name="Trazado 18" d="M463.107,263.5c.084-1.74,2.582-2.989,2.582-2.989a4.572,4.572,0,0,0-1.895,2.989c.281-.464,1.994-1.137,2.835-1.811s1.333-3.663,1.333-3.663c-.421.954-2.541.786-4.2,2.33A2.487,2.487,0,0,0,463.107,263.5Z" transform="translate(-402.982 -238.501)" fill="#8aa254"/>
        <path id="Trazado_19" data-name="Trazado 19" d="M410.064,180.355c.055-1.145,1.7-1.969,1.7-1.969a3.011,3.011,0,0,0-1.248,1.969c.185-.3,1.312-.748,1.866-1.193s.879-2.412.879-2.412c-.278.628-1.672.517-2.764,1.535A1.638,1.638,0,0,0,410.064,180.355Z" transform="translate(-358.393 -170.043)" fill="#8aa254"/>
        <path id="Trazado_20" data-name="Trazado 20" d="M433.426,276.269c.114-.405,1.253-1.268,1.741-1.948s.23-3.021.23-3.021c-.115.8-1.735,1.12-2.652,2.623a1.935,1.935,0,0,0,.166,2.491c-.3-1.32,1.306-2.778,1.306-2.778A3.55,3.55,0,0,0,433.426,276.269Z" transform="translate(-377.353 -249.678)" fill="#8aa254"/>
        <path id="Trazado_21" data-name="Trazado 21" d="M453.026,244.44c.118-1.349,2.1-2.242,2.1-2.242a3.556,3.556,0,0,0-1.563,2.264c.232-.352,1.582-.822,2.256-1.319s1.147-2.8,1.147-2.8c-.357.729-2,.533-3.33,1.68A1.932,1.932,0,0,0,453.026,244.44Z" transform="translate(-394.577 -223.602)" fill="#8aa254"/>
        <path id="Trazado_22" data-name="Trazado 22" d="M470.861,306.788a23.162,23.162,0,0,1,2.611-.12c.828-.126,2.319-1.95,2.319-1.95-.653.479-2.016-.456-3.729-.058a1.934,1.934,0,0,0-1.663,1.861c.732-1.139,2.9-1.011,2.9-1.011A3.55,3.55,0,0,0,470.861,306.788Z" transform="translate(-409.375 -277.69)" fill="#8aa254"/>
        <path id="Trazado_23" data-name="Trazado 23" d="M488.919,288.467c.492-.765,1.948-.68,1.948-.68a2.389,2.389,0,0,0-1.636.86,15.648,15.648,0,0,1,1.754-.08c.557-.085,1.559-1.309,1.559-1.309-.439.322-1.353-.306-2.5-.039A1.3,1.3,0,0,0,488.919,288.467Z" transform="translate(-424.974 -263.028)" fill="#8aa254"/>
        <path id="Trazado_24" data-name="Trazado 24" d="M422.161,259.94c-.219.656-1.63.675-2.628,1.8a1.65,1.65,0,0,0-.241,2.117c-.052-1.155,1.521-2.133,1.521-2.133a3.03,3.03,0,0,0-1.066,2.09c.156-.323,1.246-.874,1.76-1.371S422.161,259.94,422.161,259.94Z" transform="translate(-366.098 -240.11)" fill="#8aa254"/>
        <path id="Trazado_25" data-name="Trazado 25" d="M411.215,213.634a21.2,21.2,0,0,1,.972-2.213c.233-.738-.666-2.721-.666-2.721.129.738-1.2,1.484-1.577,3.068a1.788,1.788,0,0,0,.861,2.142c-.645-1.073.35-2.817.35-2.817A3.275,3.275,0,0,0,411.215,213.634Z" transform="translate(-358.397 -196.953)" fill="#8aa254"/>
        <path id="Trazado_26" data-name="Trazado 26" d="M428.176,193.546a1.789,1.789,0,0,0,1.15,2c-.787-.973-.044-2.838-.044-2.838a3.284,3.284,0,0,0,.413,2.51,21.3,21.3,0,0,1,.655-2.327c.129-.763-1.036-2.6-1.036-2.6C429.543,191,428.326,191.926,428.176,193.546Z" transform="translate(-373.802 -181.447)" fill="#8aa254"/>
        <path id="Trazado_27" data-name="Trazado 27" d="M409.836,294c.129-.267,1.03-.722,1.456-1.133s.541-2.068.541-2.068c-.181.543-1.347.558-2.172,1.486a1.365,1.365,0,0,0-.2,1.749c-.043-.954,1.257-1.764,1.257-1.764A2.509,2.509,0,0,0,409.836,294Z" transform="translate(-357.858 -266.102)" fill="#4d7334"/>
        <path id="Trazado_28" data-name="Trazado 28" d="M393.975,232.094c.016-.3.669-1.065.9-1.609s-.3-2.115-.3-2.115c.043.569-1.025,1.036-1.426,2.212a1.363,1.363,0,0,0,.494,1.689c-.409-.863.475-2.112.475-2.112A2.509,2.509,0,0,0,393.975,232.094Z" transform="translate(-344.224 -213.52)" fill="#4d7334"/>
        <path id="Trazado_29" data-name="Trazado 29" d="M400.671,160.028c-.629-.718-.12-2.163-.12-2.163a2.508,2.508,0,0,0,.391,1.9,16.14,16.14,0,0,1,.429-1.794c.076-.587-.869-1.953-.869-1.953.2.536-.7,1.278-.768,2.516A1.365,1.365,0,0,0,400.671,160.028Z" transform="translate(-349.855 -152.583)" fill="#8aa254"/>
        <path id="Trazado_30" data-name="Trazado 30" d="M360.05,160.814a1.161,1.161,0,0,0,1.148.959c-.7-.415-.664-1.715-.664-1.715a2.131,2.131,0,0,0,.814,1.432,13.813,13.813,0,0,1-.125-1.562c-.093-.494-1.213-1.349-1.213-1.349C360.31,158.962,359.777,159.8,360.05,160.814Z" transform="translate(-316.366 -154.739)" fill="#8aa254"/>
        <path id="Trazado_31" data-name="Trazado 31" d="M325.164,140.574a1.159,1.159,0,0,0,1.148.959c-.7-.415-.664-1.715-.664-1.715a2.131,2.131,0,0,0,.814,1.432,13.8,13.8,0,0,1-.125-1.562c-.093-.494-1.213-1.349-1.213-1.349C325.426,138.722,324.893,139.555,325.164,140.574Z" transform="translate(-286.984 -137.692)" fill="#8aa254"/>
        <path id="Trazado_32" data-name="Trazado 32" d="M342.344,148.914c.256-.77,1.533-1.016,1.533-1.016a2.133,2.133,0,0,0-1.224,1.1,13.832,13.832,0,0,1,1.5-.456c.462-.2,1.057-1.475,1.057-1.475-.309.375-1.237.033-2.174.517A1.158,1.158,0,0,0,342.344,148.914Z" transform="translate(-301.496 -145.045)" fill="#8aa254"/>
        <path id="Trazado_33" data-name="Trazado 33" d="M338.079,136.991c-.363-.552.123-1.492.123-1.492a1.727,1.727,0,0,0,.088,1.338,11.287,11.287,0,0,1,.464-1.188c.107-.394-.41-1.418-.41-1.418.084.386-.6.808-.764,1.65A.942.942,0,0,0,338.079,136.991Z" transform="translate(-297.486 -134.23)" fill="#8aa254"/>
        <path id="Trazado_34" data-name="Trazado 34" d="M366.705,144.311a1.179,1.179,0,0,0,1.014,1.133c-.64-.519-.416-1.822-.416-1.822a2.166,2.166,0,0,0,.609,1.56,14.009,14.009,0,0,1,.1-1.587c-.021-.51-1.022-1.535-1.022-1.535C367.238,142.487,366.581,143.248,366.705,144.311Z" transform="translate(-322.025 -140.825)" fill="#8aa254"/>
        <path id="Trazado_35" data-name="Trazado 35" d="M309.633,151.581a1.85,1.85,0,0,0,1.989,1.322c-1.178-.538-1.353-2.608-1.353-2.608a3.4,3.4,0,0,0,1.543,2.133,21.739,21.739,0,0,1-.469-2.458c-.233-.767-2.163-1.931-2.163-1.931C309.723,148.6,309.022,150.013,309.633,151.581Z" transform="translate(-273.588 -145.862)" fill="#8aa254"/>
        <path id="Trazado_36" data-name="Trazado 36" d="M380.09,152.49a2.163,2.163,0,0,0-.549,1.582c.079-.243.795-.74,1.109-1.141s.218-1.831.218-1.831c-.09.486-1.084.637-1.68,1.527a1.179,1.179,0,0,0,.036,1.519C379.075,153.335,380.09,152.49,380.09,152.49Z" transform="translate(-332.337 -148.439)" fill="#8aa254"/>
        <path id="Trazado_37" data-name="Trazado 37" d="M337.3,174.567a10.658,10.658,0,0,1,1.122-.4c.344-.166.751-1.158.751-1.158-.221.3-.939.069-1.633.47a.881.881,0,0,0-.478,1.032c.167-.593,1.128-.827,1.128-.827A1.63,1.63,0,0,0,337.3,174.567Z" transform="translate(-297.043 -166.893)" fill="#4d7334"/>
        <path id="Trazado_38" data-name="Trazado 38" d="M338.037,162.614a12.279,12.279,0,0,1,1.3-.491c.4-.2.845-1.363.845-1.363-.249.349-1.09.1-1.887.585a1.025,1.025,0,0,0-.53,1.212c.18-.694,1.292-.988,1.292-.988A1.879,1.879,0,0,0,338.037,162.614Z" transform="translate(-297.624 -156.575)" fill="#8aa254"/>
        <path id="Trazado_39" data-name="Trazado 39" d="M390.206,179.414a1.864,1.864,0,0,0,1.705,1.694c-1.058-.762-.827-2.838-.827-2.838a3.418,3.418,0,0,0,1.106,2.406,22.293,22.293,0,0,1,.017-2.518c-.08-.8-1.757-2.328-1.757-2.328C390.88,176.485,389.911,177.747,390.206,179.414Z" transform="translate(-341.784 -169.268)" fill="#8aa254"/>
        <path id="Trazado_40" data-name="Trazado 40" d="M417.767,251.592c.645-.044,1.91-1.352,1.91-1.352-.533.327-1.522-.481-2.866-.285a1.493,1.493,0,0,0-1.4,1.325c.636-.83,2.3-.592,2.3-.592a2.743,2.743,0,0,0-1.956.827A18.224,18.224,0,0,1,417.767,251.592Z" transform="translate(-363.061 -231.673)" fill="#8aa254"/>
        <path id="Trazado_41" data-name="Trazado 41" d="M375.04,174.791c.169-.68,1.254-.978,1.254-.978a1.846,1.846,0,0,0-.983,1.032,11.684,11.684,0,0,1,1.26-.492c.385-.2.812-1.342.812-1.342-.241.344-1.065.112-1.839.592A1,1,0,0,0,375.04,174.791Z" transform="translate(-329.021 -166.893)" fill="#8aa254"/>
        <path id="Trazado_42" data-name="Trazado 42" d="M399.337,268.17c.03-.345.775-1.147,1.052-1.749a6.36,6.36,0,0,0-.235-2.53c.022.675-1.159,1.06-1.647,2.377a1.8,1.8,0,0,0,.462,2.06c-.407-1.076.611-2.407.611-2.407A3.123,3.123,0,0,0,399.337,268.17Z" transform="translate(-348.707 -243.437)" fill="#4d7334"/>
        <path id="Trazado_43" data-name="Trazado 43" d="M435.768,235.312c-.562.377-1.513-.42-2.888-.136a1.8,1.8,0,0,0-1.5,1.484c.7-.915,2.365-.76,2.365-.76a3.128,3.128,0,0,0-2.035.989,17.026,17.026,0,0,1,2.041-.036C434.407,236.768,435.768,235.312,435.768,235.312Z" transform="translate(-376.511 -219.2)" fill="#8aa254"/>
        <path id="Trazado_44" data-name="Trazado 44" d="M445.8,203.253c-.828.183-1.5,1.33-1.5,1.33a13.627,13.627,0,0,1,1.606-.506c.509-.226,1.426-1.806,1.426-1.806-.4.457-1.24-.013-2.294.555a1.9,1.9,0,0,0-1.024,1.636A2.715,2.715,0,0,1,445.8,203.253Z" transform="translate(-387.157 -191.537)" fill="#8aa254"/>
        <path id="Trazado_45" data-name="Trazado 45" d="M445.64,218.705a2.138,2.138,0,0,0-1.53,1.533,3.042,3.042,0,0,1,2.254-.875,3.46,3.46,0,0,0-1.973,1.081,15.231,15.231,0,0,1,1.885-.151c.614-.12,2.014-1.618,2.014-1.618C447.735,219.073,446.937,218.349,445.64,218.705Z" transform="translate(-387.233 -205.294)" fill="#8aa254"/>
        <path id="Trazado_46" data-name="Trazado 46" d="M166.815,180.355a3.011,3.011,0,0,0-1.248-1.969s1.645.822,1.7,1.969a1.638,1.638,0,0,0-.434-2.07c-1.09-1.016-2.486-.905-2.764-1.535,0,0,.323,1.969.879,2.412S166.63,180.048,166.815,180.355Z" transform="translate(-151.368 -170.043)" fill="#8aa254"/>
        <path id="Trazado_47" data-name="Trazado 47" d="M146.207,273.923c-.915-1.5-2.537-1.82-2.652-2.623,0,0-.259,2.339.23,3.021s1.63,1.543,1.742,1.948a3.554,3.554,0,0,0-.792-2.634s1.607,1.458,1.306,2.778A1.928,1.928,0,0,0,146.207,273.923Z" transform="translate(-134.032 -249.678)" fill="#8aa254"/>
        <path id="Trazado_48" data-name="Trazado 48" d="M159.369,263.854a1.65,1.65,0,0,0-.241-2.117c-1-1.122-2.409-1.141-2.628-1.8,0,0,.14,2,.655,2.5s1.6,1.047,1.76,1.371a3.034,3.034,0,0,0-1.066-2.09S159.421,262.7,159.369,263.854Z" transform="translate(-144.992 -240.11)" fill="#8aa254"/>
        <path id="Trazado_49" data-name="Trazado 49" d="M172.944,211.758c-.374-1.584-1.707-2.328-1.577-3.068,0,0-.9,1.983-.666,2.721a21.56,21.56,0,0,1,.972,2.213,3.291,3.291,0,0,0,.062-2.543s.994,1.743.35,2.817A1.784,1.784,0,0,0,172.944,211.758Z" transform="translate(-156.92 -196.944)" fill="#8aa254"/>
        <path id="Trazado_50" data-name="Trazado 50" d="M154.444,192.71s.743,1.865-.044,2.838a1.789,1.789,0,0,0,1.15-2c-.15-1.62-1.368-2.543-1.137-3.256,0,0-1.166,1.839-1.036,2.6a21.316,21.316,0,0,1,.655,2.327A3.285,3.285,0,0,0,154.444,192.71Z" transform="translate(-142.353 -181.447)" fill="#8aa254"/>
        <path id="Trazado_51" data-name="Trazado 51" d="M192.195,230.582c-.4-1.175-1.469-1.641-1.426-2.212,0,0-.536,1.573-.3,2.115s.887,1.312.9,1.609a2.505,2.505,0,0,0-.144-1.936s.885,1.249.475,2.112A1.358,1.358,0,0,0,192.195,230.582Z" transform="translate(-173.551 -213.52)" fill="#4d7334"/>
        <path id="Trazado_52" data-name="Trazado 52" d="M205.589,203.779a2.51,2.51,0,0,0,.543-1.863s.393,1.48-.293,2.145a1.365,1.365,0,0,0,1.054-1.412c.035-1.241-.8-2.051-.563-2.57,0,0-1.051,1.286-1.022,1.877A16.655,16.655,0,0,1,205.589,203.779Z" transform="translate(-186.1 -189.692)" fill="#8aa254"/>
        <path id="Trazado_53" data-name="Trazado 53" d="M219.683,213.932a13.784,13.784,0,0,1,.457,1.5,2.135,2.135,0,0,0,.232-1.631s.508,1.2.013,1.839a1.161,1.161,0,0,0,.716-1.314c-.121-1.047-.923-1.628-.784-2.093C220.316,212.232,219.587,213.438,219.683,213.932Z" transform="translate(-198.201 -199.926)" fill="#4d7334"/>
        <path id="Trazado_54" data-name="Trazado 54" d="M233.164,173.8s.033,1.3-.664,1.715a1.159,1.159,0,0,0,1.148-.959c.273-1.019-.26-1.852.039-2.234,0,0-1.122.855-1.213,1.349a13.852,13.852,0,0,1-.125,1.562A2.131,2.131,0,0,0,233.164,173.8Z" transform="translate(-208.877 -166.311)" fill="#4d7334"/>
        <path id="Trazado_55" data-name="Trazado 55" d="M235.6,219.919c-.439-.959-1.38-1.264-1.391-1.749,0,0-.32,1.374-.077,1.813s.86,1.033.9,1.282a2.127,2.127,0,0,0-.284-1.623s.853.981.579,1.746A1.156,1.156,0,0,0,235.6,219.919Z" transform="translate(-210.303 -204.929)" fill="#4d7334"/>
        <path id="Trazado_56" data-name="Trazado 56" d="M252.143,228.324c-.394-.863-1.241-1.137-1.253-1.574,0,0-.289,1.237-.069,1.631s.773.931.808,1.155a1.917,1.917,0,0,0-.256-1.461s.767.883.522,1.571A1.04,1.04,0,0,0,252.143,228.324Z" transform="translate(-224.365 -212.155)" fill="#4d7334"/>
        <path id="Trazado_57" data-name="Trazado 57" d="M335.116,228.324c.394-.863,1.241-1.137,1.252-1.574,0,0,.289,1.237.069,1.631s-.773.931-.808,1.155a1.917,1.917,0,0,1,.256-1.461s-.767.883-.522,1.571A1.04,1.04,0,0,1,335.116,228.324Z" transform="translate(-295.325 -212.155)" fill="#4d7334"/>
        <path id="Trazado_58" data-name="Trazado 58" d="M269.421,179.388s-.457,1.338-1.325,1.5a1.26,1.26,0,0,0,1.532-.543c.663-.934.435-1.986.885-2.262,0,0-1.466.448-1.746.917a15.038,15.038,0,0,1-.716,1.544A2.333,2.333,0,0,0,269.421,179.388Z" transform="translate(-238.946 -171.163)" fill="#4d7334"/>
        <path id="Trazado_59" data-name="Trazado 59" d="M208.547,241.888c-.443-.669-1.186-.786-1.253-1.148,0,0-.077,1.07.156,1.371s.768.675.827.858a1.623,1.623,0,0,0-.405-1.186s.757.637.642,1.243A.878.878,0,0,0,208.547,241.888Z" transform="translate(-187.764 -223.939)" fill="#4d7334"/>
        <path id="Trazado_60" data-name="Trazado 60" d="M242.079,185.6s.273.951-.161,1.39a.879.879,0,0,0,.661-.924c.006-.8-.546-1.314-.4-1.652,0,0-.661.844-.636,1.226a10.314,10.314,0,0,1,.207,1.172A1.618,1.618,0,0,0,242.079,185.6Z" transform="translate(-216.622 -176.494)" fill="#4d7334"/>
        <path id="Trazado_61" data-name="Trazado 61" d="M209.113,188.323a10.3,10.3,0,0,1,1.147.32,1.617,1.617,0,0,0-.951-.816s.975.164,1.183.745a.882.882,0,0,0-.549-1c-.721-.352-1.421-.076-1.663-.355C208.283,187.222,208.758,188.182,209.113,188.323Z" transform="translate(-188.604 -178.861)" fill="#8aa254"/>
        <path id="Trazado_62" data-name="Trazado 62" d="M192.176,180.684a3.418,3.418,0,0,0,1.106-2.406s.232,2.077-.827,2.838a1.862,1.862,0,0,0,1.705-1.694c.295-1.667-.672-2.931-.245-3.582,0,0-1.677,1.525-1.757,2.328A22.269,22.269,0,0,1,192.176,180.684Z" transform="translate(-175.014 -169.276)" fill="#8aa254"/>
        <path id="Trazado_63" data-name="Trazado 63" d="M157.257,251.29a1.494,1.494,0,0,0-1.4-1.325c-1.346-.2-2.333.612-2.866.286,0,0,1.264,1.308,1.91,1.352a17.769,17.769,0,0,1,2.018-.076,2.747,2.747,0,0,0-1.956-.827S156.62,250.46,157.257,251.29Z" transform="translate(-142.036 -231.682)" fill="#8aa254"/>
        <path id="Trazado_64" data-name="Trazado 64" d="M185.712,266.267c-.487-1.317-1.669-1.7-1.647-2.377a6.36,6.36,0,0,0-.235,2.53c.278.6,1.021,1.4,1.052,1.749a3.119,3.119,0,0,0-.241-2.249s1.016,1.331.61,2.407A1.806,1.806,0,0,0,185.712,266.267Z" transform="translate(-167.942 -243.437)" fill="#4d7334"/>
        <path id="Trazado_65" data-name="Trazado 65" d="M140.638,236.658a1.8,1.8,0,0,0-1.5-1.484c-1.376-.286-2.327.513-2.888.136,0,0,1.361,1.456,2.019,1.541a17.726,17.726,0,0,1,2.041.036,3.127,3.127,0,0,0-2.035-.989S139.943,235.743,140.638,236.658Z" transform="translate(-127.937 -219.197)" fill="#8aa254"/>
        <path id="Trazado_66" data-name="Trazado 66" d="M131.808,204.076a13.623,13.623,0,0,1,1.606.506s-.67-1.148-1.5-1.33a2.71,2.71,0,0,1,1.783,1.208,1.906,1.906,0,0,0-1.024-1.636c-1.054-.566-1.891-.1-2.294-.555C130.382,202.272,131.3,203.851,131.808,204.076Z" transform="translate(-122.993 -191.537)" fill="#8aa254"/>
        <path id="Trazado_67" data-name="Trazado 67" d="M126.863,220.292a15.612,15.612,0,0,1,1.885.151,3.454,3.454,0,0,0-1.973-1.081,3.042,3.042,0,0,1,2.254.875,2.138,2.138,0,0,0-1.53-1.533c-1.3-.356-2.095.368-2.649-.032C124.848,218.674,126.248,220.172,126.863,220.292Z" transform="translate(-118.335 -205.294)" fill="#8aa254"/>
        <path id="Trazado_68" data-name="Trazado 68" d="M225.561,282.826a1.8,1.8,0,0,0-.342-2.085c-.945-1.04-2.185-.954-2.418-1.59a6.384,6.384,0,0,0,.727,2.436c.483.456,1.473.921,1.629,1.23a3.121,3.121,0,0,0-1.065-2S225.535,281.676,225.561,282.826Z" transform="translate(-200.834 -256.29)" fill="#4d7334"/>
        <path id="Trazado_69" data-name="Trazado 69" d="M205.883,276.086c-.667-1.238-1.89-1.454-1.962-2.126a6.375,6.375,0,0,0,.118,2.54c.358.558,1.207,1.249,1.286,1.587a3.122,3.122,0,0,0-.552-2.2s1.193,1.178.939,2.3A1.8,1.8,0,0,0,205.883,276.086Z" transform="translate(-184.866 -251.918)" fill="#4d7334"/>
        <path id="Trazado_70" data-name="Trazado 70" d="M380.648,200.08c.24.519-.6,1.33-.563,2.57a1.365,1.365,0,0,0,1.054,1.412c-.685-.666-.293-2.145-.293-2.145a2.51,2.51,0,0,0,.543,1.863,16.348,16.348,0,0,1,.284-1.822C381.7,201.366,380.648,200.08,380.648,200.08Z" transform="translate(-333.307 -189.692)" fill="#8aa254"/>
        <path id="Trazado_71" data-name="Trazado 71" d="M367.628,215.438a13.69,13.69,0,0,1,.457-1.5c.095-.492-.634-1.7-.634-1.7.139.465-.663,1.046-.784,2.093a1.161,1.161,0,0,0,.716,1.314c-.5-.642.013-1.839.013-1.839A2.125,2.125,0,0,0,367.628,215.438Z" transform="translate(-321.997 -199.934)" fill="#4d7334"/>
        <path id="Trazado_72" data-name="Trazado 72" d="M354.434,174.554a1.159,1.159,0,0,0,1.148.959c-.7-.415-.664-1.715-.664-1.715a2.131,2.131,0,0,0,.814,1.432,13.8,13.8,0,0,1-.125-1.562c-.093-.494-1.213-1.349-1.213-1.349C354.7,172.7,354.163,173.536,354.434,174.554Z" transform="translate(-311.636 -166.311)" fill="#4d7334"/>
        <path id="Trazado_73" data-name="Trazado 73" d="M351.331,221.275c.038-.249.655-.844.9-1.282s-.077-1.812-.077-1.812c-.011.486-.953.79-1.391,1.749a1.158,1.158,0,0,0,.276,1.47c-.273-.763.579-1.746.579-1.746A2.123,2.123,0,0,0,351.331,221.275Z" transform="translate(-308.489 -204.937)" fill="#4d7334"/>
        <path id="Trazado_74" data-name="Trazado 74" d="M312.675,180.334a1.26,1.26,0,0,0,1.532.543c-.868-.159-1.325-1.5-1.325-1.5a2.313,2.313,0,0,0,1.371,1.152,15.022,15.022,0,0,1-.716-1.544c-.281-.467-1.746-.917-1.746-.917C312.24,178.348,312.012,179.4,312.675,180.334Z" transform="translate(-275.786 -171.154)" fill="#4d7334"/>
        <path id="Trazado_75" data-name="Trazado 75" d="M379.4,242.969c.058-.183.592-.557.827-.858s.156-1.371.156-1.371c-.066.363-.809.481-1.253,1.148a.881.881,0,0,0,.033,1.137c-.115-.606.642-1.243.642-1.243A1.623,1.623,0,0,0,379.4,242.969Z" transform="translate(-332.346 -223.939)" fill="#4d7334"/>
        <path id="Trazado_76" data-name="Trazado 76" d="M347.992,186.968c-.434-.439-.161-1.39-.161-1.39a1.619,1.619,0,0,0,.325,1.21,10.631,10.631,0,0,1,.207-1.172c.027-.382-.636-1.226-.636-1.226.148.338-.4.85-.4,1.652A.882.882,0,0,0,347.992,186.968Z" transform="translate(-305.72 -176.477)" fill="#4d7334"/>
        <path id="Trazado_77" data-name="Trazado 77" d="M373.034,188.572c.208-.581,1.183-.745,1.183-.745a1.617,1.617,0,0,0-.951.816,10.754,10.754,0,0,1,1.147-.32c.355-.14.83-1.1.83-1.1-.241.279-.942,0-1.663.355A.882.882,0,0,0,373.034,188.572Z" transform="translate(-327.354 -178.861)" fill="#8aa254"/>
        <path id="Trazado_78" data-name="Trazado 78" d="M377.852,278.087c.079-.338.927-1.03,1.286-1.587a6.374,6.374,0,0,0,.118-2.54c-.073.674-1.3.89-1.962,2.126a1.8,1.8,0,0,0,.172,2.106c-.254-1.123.939-2.3.939-2.3A3.118,3.118,0,0,0,377.852,278.087Z" transform="translate(-330.74 -251.918)" fill="#4d7334"/>
        <path id="Trazado_79" data-name="Trazado 79" d="M354.531,282.826c.158-.309,1.148-.775,1.631-1.23a6.365,6.365,0,0,0,.727-2.436c-.232.636-1.472.551-2.418,1.59a1.806,1.806,0,0,0-.342,2.085c.025-1.15,1.467-2.007,1.467-2.007A3.122,3.122,0,0,0,354.531,282.826Z" transform="translate(-311.287 -256.298)" fill="#4d7334"/>
      </g>
    </g>
    <g id="Grupo_3" data-name="Grupo 3" transform="translate(93.334 39.936)">
      <path id="Trazado_80" data-name="Trazado 80" d="M77,625.362a5.337,5.337,0,0,1,1.789-.478,9.843,9.843,0,0,0,2.14-.5,5.445,5.445,0,0,0,.138-.674q.046-.327.047-2.231l-.022-5.185.094-2.788-.047-2.162.047-1.256q.07-2.535.069-4.741,0-4.833-.116-6.182l-1.372-.279q-1.884-.116-2.51-.232l-.047-1.394L77.3,597a13.593,13.593,0,0,1,2.14-.185q.534,0,2.162-.022c1.115.094,1.72.138,1.814.138l1.231-.069,2.9-.138a56.6,56.6,0,0,1,5.74-.279,11.188,11.188,0,0,1,7.576,2.43,7.216,7.216,0,0,1,2.813,5.566,6.7,6.7,0,0,1-1.519,4.266A9.233,9.233,0,0,1,97.5,611.6c.185.326.431.7.74,1.14q.973,1.4,1.574,2.372l3.705,6.019a18.027,18.027,0,0,0,1.825,2.8,5.614,5.614,0,0,0,1.778.894,7.45,7.45,0,0,1,1.6.79,2.129,2.129,0,0,1,.141.7c0,.141-.008.318-.022.536h-.627l-.464.022-1.209-.163h-.953a12.228,12.228,0,0,0-1.836-.116l-2.325-.022q-.257,0-1.626.163c-.42.047-.751.086-1,.116l-.79-1.535q-.977-1.744-1.372-2.6-1.023-2.253-3.509-7.181a8.959,8.959,0,0,0-1.626-2.579,4.34,4.34,0,0,0-2.394-.489c-.309,0-.837.017-1.579.047a15.75,15.75,0,0,0-.069,1.6l.116,5.16-.141,4.371a5.257,5.257,0,0,0,1.7.6,19.233,19.233,0,0,1,3.114.884,11.53,11.53,0,0,1-.094,1.72c-.3-.014-.48-.022-.558-.022l-.953.047q-5-.443-5.928-.442c-.4,0-.69.008-.861.022l-3.208.21a24.551,24.551,0,0,1-2.673.163h-1c-.03-.387-.047-.635-.047-.743A5.088,5.088,0,0,1,77,625.362Zm10.458-15.039c.743.03,1.287.047,1.626.047q3.951,0,5.6-1.416a4.747,4.747,0,0,0,1.651-3.788,9.136,9.136,0,0,0-.406-2.755,4.908,4.908,0,0,0-1.008-1.919,5.4,5.4,0,0,0-2.247-1.372,11.046,11.046,0,0,0-3.269-.348,12.39,12.39,0,0,0-1.83.116l-.047.442.047,3.139-.069,1.905.022,2.534c-.03.712-.055,1.634-.069,2.767v.649Z" transform="translate(-76.93 -596.45)" fill="#4d3c41"/>
      <path id="Trazado_81" data-name="Trazado 81" d="M195.63,639.388a11.206,11.206,0,0,1,.781-4.05A9.457,9.457,0,0,1,198,632.654a10.6,10.6,0,0,1,2.568-2.173,11.445,11.445,0,0,1,3.153-1.367,14.448,14.448,0,0,1,3.595-.414,12.742,12.742,0,0,1,5.87,1.27,10.056,10.056,0,0,1,3.918,3.432,10.568,10.568,0,0,1,1.853,5.906,11.031,11.031,0,0,1-3.131,7.891q-3.131,3.284-8.705,3.286a17.639,17.639,0,0,1-2.584-.18,9.057,9.057,0,0,1-1.593-.359q-1.234-.406-1.383-.472a13.859,13.859,0,0,1-2.847-2.065,10.591,10.591,0,0,1-1.819-2.391,13.954,13.954,0,0,1-.928-2.7A11.266,11.266,0,0,1,195.63,639.388ZM206.7,630.31a4.709,4.709,0,0,0-2.5.66,5.262,5.262,0,0,0-1.64,1.455,8.872,8.872,0,0,0-1.317,2.954,16.745,16.745,0,0,0-.389,3.9,12.364,12.364,0,0,0,.113,2c.022.13.055.353.1.668a8.729,8.729,0,0,0,.342,1.756,17.809,17.809,0,0,0,.991,2.554,6.575,6.575,0,0,0,1.447,1.643,4.745,4.745,0,0,0,1.414.773,5.242,5.242,0,0,0,1.853.351,6.665,6.665,0,0,0,3.258-.823,5.8,5.8,0,0,0,2.413-2.791,12.281,12.281,0,0,0,.911-5.124q0-1.3-.179-3.531l-.08-.309a6.578,6.578,0,0,1-.163-.668,7.085,7.085,0,0,0-2.3-4.067A6.509,6.509,0,0,0,206.7,630.31Z" transform="translate(-162.858 -619.796)" fill="#4d3c41"/>
      <path id="Trazado_82" data-name="Trazado 82" d="M291.15,639.388a11.206,11.206,0,0,1,.781-4.05,9.457,9.457,0,0,1,1.593-2.684,10.537,10.537,0,0,1,2.568-2.173,11.446,11.446,0,0,1,3.153-1.367,14.424,14.424,0,0,1,3.592-.414,12.742,12.742,0,0,1,5.87,1.27,10.056,10.056,0,0,1,3.918,3.432,10.568,10.568,0,0,1,1.853,5.906,11.031,11.031,0,0,1-3.131,7.891q-3.131,3.284-8.705,3.286a17.638,17.638,0,0,1-2.584-.18,9.057,9.057,0,0,1-1.593-.359q-1.234-.406-1.38-.472a13.858,13.858,0,0,1-2.847-2.065,10.59,10.59,0,0,1-1.819-2.391,13.952,13.952,0,0,1-.928-2.7A11.266,11.266,0,0,1,291.15,639.388Zm11.071-9.078a4.709,4.709,0,0,0-2.5.66,5.263,5.263,0,0,0-1.64,1.455,8.873,8.873,0,0,0-1.317,2.954,16.745,16.745,0,0,0-.389,3.9,12.362,12.362,0,0,0,.113,2c.022.13.055.353.1.668a8.734,8.734,0,0,0,.342,1.756,17.819,17.819,0,0,0,.991,2.554,6.577,6.577,0,0,0,1.447,1.643,4.745,4.745,0,0,0,1.414.773,5.243,5.243,0,0,0,1.853.351,6.665,6.665,0,0,0,3.258-.823,5.8,5.8,0,0,0,2.413-2.791,12.281,12.281,0,0,0,.911-5.124q0-1.3-.179-3.531l-.08-.309a6.565,6.565,0,0,1-.163-.668,7.085,7.085,0,0,0-2.3-4.067A6.509,6.509,0,0,0,302.221,630.31Z" transform="translate(-232.006 -619.796)" fill="#4d3c41"/>
      <path id="Trazado_83" data-name="Trazado 83" d="M380.74,626.8h1.008c.075.122.13.21.163.265a5.993,5.993,0,0,0,.7,1.038q.211.05,2.228.05c.834,0,1.579,0,2.228-.011l.326-.036,1.969-.017,3.678.017h5.028l.961-.133a1.827,1.827,0,0,0,.456-.79c.044-.1.1-.235.179-.411l.715-.017q.162,0,.489.017.017,1.122.017,3.385l.017,1.449-.017.828a3.522,3.522,0,0,1-.066.732,5.873,5.873,0,0,1-1.171.259,10.984,10.984,0,0,1-.922-1.839,7.456,7.456,0,0,0-.627-1.333.916.916,0,0,0-.456-.276q-.393-.083-3.457-.08c-.3,0-.685.022-1.14.066a8.346,8.346,0,0,0-.083,1.041l.017,2.181v4.785l.05,5.157-.017,2.115a5.553,5.553,0,0,0,.2,1.693,4.2,4.2,0,0,0,.964.213c.088.011.491.1,1.209.26a6.825,6.825,0,0,1,.867.26c.055.389.083.63.083.715a2.57,2.57,0,0,1-.05.422c-.237.011-.433.017-.585.017a28.489,28.489,0,0,1-2.846-.121q-1.172-.12-4.246-.121-.489,0-2.863.2c-.618.044-1.019.066-1.2.066-.011-.163-.022-.287-.033-.375l-.017-.376v-.13a2.281,2.281,0,0,1,1.35-.7,12.546,12.546,0,0,0,2.344-.732,2.063,2.063,0,0,0,.2-.814q.112-1.951.113-6.215l-.08-6.151a26.837,26.837,0,0,0-.1-3.076.41.41,0,0,0-.113-.218.377.377,0,0,0-.229-.088q-.505-.066-3.285-.066a4.752,4.752,0,0,0-2.051.293,9.641,9.641,0,0,0-2.1,2.211c-.271.348-.472.522-.6.522a3.594,3.594,0,0,1-.961-.635,31.724,31.724,0,0,0,1.4-4.23C380.538,627.439,380.662,627.022,380.74,626.8Z" transform="translate(-295.579 -618.392)" fill="#4d3c41"/>
      <path id="Trazado_84" data-name="Trazado 84" d="M480.154,629.418a10.838,10.838,0,0,1,.293,1.676,24.228,24.228,0,0,1,.2,2.6,3.357,3.357,0,0,1-.066.635l-.163.05-1.171-.08-.2-.033a8.4,8.4,0,0,0-1.433-2.913,3.893,3.893,0,0,0-2.913-1.3,3.638,3.638,0,0,0-2.529.839,2.678,2.678,0,0,0-.936,2.076,2.873,2.873,0,0,0,.928,2,9.288,9.288,0,0,0,3.874,1.836,18.273,18.273,0,0,1,2.4.941,7.009,7.009,0,0,1,2.14,1.414,6.141,6.141,0,0,1,1.342,1.944,6.479,6.479,0,0,1,.367,2.336,8.371,8.371,0,0,1-.569,3.012,4.5,4.5,0,0,1-.991,1.48,9.449,9.449,0,0,1-1.513,1.149,7.5,7.5,0,0,1-2.123.952,11.2,11.2,0,0,1-2.822.293,13.664,13.664,0,0,1-2.717-.326l-1.952-.569a3.255,3.255,0,0,1-1.024-.406.622.622,0,0,1-.146-.309v-.18q0-.178-.08-2.228c-.022-.7-.033-1.2-.033-1.5V644.2l1.513-.033q.779,1.814,1.008,2.187a5.358,5.358,0,0,0,1.113,1.347,4.665,4.665,0,0,0,1.452.817,5.417,5.417,0,0,0,1.836.3,5.789,5.789,0,0,0,1.933-.376,3.541,3.541,0,0,0,1.7-1.231,2.845,2.845,0,0,0-.483-4.064,13.1,13.1,0,0,0-3.678-1.7,18.24,18.24,0,0,1-4.15-1.888,5.709,5.709,0,0,1-1.822-2.223,6.189,6.189,0,0,1-.668-2.678,5.908,5.908,0,0,1,1.855-4.4,7.525,7.525,0,0,1,5.467-1.806,14.134,14.134,0,0,1,2.311.276A17.7,17.7,0,0,1,480.154,629.418Z" transform="translate(-360.079 -619.622)" fill="#4d3c41"/>
    </g>
  </g>
</svg>
