<?xml version="1.0" encoding="utf-8"?>
<svg version="1.1" id="Capa_1" x="0px" y="0px" viewBox="16.472 47.487 281.448 505.154" style="enable-background:new 0 0 595.28 841.89;" xmlns="http://www.w3.org/2000/svg">
  <style type="text/css">
	.st0{fill:#4D7334;}
	.st1{fill:#4D3C41;}
	.st2{fill:#8AA254;}
</style>
  <g transform="matrix(1, 0, 0, 1, 3.712709, -4.763536)">
    <rect x="75.72" y="563.37" class="st0" width="443.03" height="2.43" style="fill: rgb(216, 212, 211);"/>
    <g>
      <path class="st1" d="M500.51,414.05c-2.69,0.45-6.76,0.55-11.77-0.56c-5.04-1.06-10.82-3.5-17.34-6.96 c-6.52-3.34-14.1-7.85-23.78-9.96c-0.61-0.14-1.27-0.2-1.89-0.32c0.67-0.35,1.31-0.69,1.9-1.01c2.22-1.18,4.36-2.21,6.53-2.98 c8.64-3.19,16.42-3.38,21.64-2.96c5.27,0.42,8.12,1.3,8.12,1.3s-0.69-0.27-2-0.77c-1.33-0.46-3.31-1.13-5.95-1.68 c-5.23-1.11-13.3-1.94-22.92,0.56c-2.39,0.6-4.86,1.51-7.33,2.55c-2.45,1.07-4.62,2.04-6.99,2.24c-2.43,0.27-5.18,0-8.3-0.09 c-3.14-0.03-6.41,0.12-9.66,0.62c-5.04,0.7-10.05,2.02-15.08,3.47c-7.92,1.48-16,3.34-24.27,4.91c-5.99,1.14-11.68,1.99-16.88,0.8 c-5.37-1.12-11.03-3.76-16.82-7.16c-5.06-2.97-9.23-6.9-12.52-13.73c-0.58-1.22-1.24-2.58-2.01-4.14l-0.07-0.15 c-0.4-0.85-0.8-1.71-1.2-2.57c-6.48-14.11-11.55-29.88-14.75-45.96c0.18-0.18,0.34-0.39,0.53-0.56c2.12-1.87,4.7-3.38,7.57-4.67 c2.87-1.29,6.02-2.33,9.29-3.34c3.3-1,6.58-1.96,9.77-2.78c6.39-1.64,12.59-2.71,18.48-2.67c2.96,0.02,5.77,0.29,8.57,0.91 c2.82,0.59,5.7,1.49,8.64,2.43c2.94,0.95,5.96,1.94,9.1,2.76c3.11,0.83,6.44,1.42,9.65,1.64c2.52,0.18,4.96,0.12,7.36-0.04 c3.16,0.02,6.5-0.06,9.99-0.91l1.04-0.28l0.85-0.26l1.68-0.5c1.1-0.31,2.19-0.62,3.27-0.92c2.14-0.57,4.22-1.05,6.23-1.36 c4.02-0.65,7.79-0.62,11.2,0.2c3.85,0.93,7.44,1.8,10.72,2.6c3.21,0.84,6.5,1.36,9.25,1.39c2.78,0.06,5.14-0.21,7.03-0.55 c1.89-0.35,3.32-0.75,4.27-1.07c0.95-0.31,1.44-0.5,1.44-0.5s-0.52,0.05-1.51,0.13c-0.49,0.04-1.1,0.08-1.82,0.09 c-0.72,0.02-1.55,0.02-2.47-0.01c-1.85-0.08-4.1-0.28-6.62-0.82c-2.56-0.53-5.2-1.44-8.33-2.81c-3.12-1.28-6.45-2.65-10.19-4.09 c-0.14-0.05-0.29-0.08-0.43-0.13c5.68-2.31,10.91-4.65,15.62-6.85c5.41-2.54,10.2-4.87,14.37-6.94c1.39-0.69,2.71-1.35,3.97-1.98 c1.26-0.63,2.43-1.26,3.52-1.87c3.27-1.85,5.77-3.6,7.44-5.07c1.13-0.96,1.91-1.78,2.43-2.33c0.5-0.56,0.76-0.85,0.76-0.85 s-0.29,0.25-0.86,0.75c-0.58,0.48-1.45,1.18-2.67,1.98c-1.21,0.82-2.77,1.72-4.68,2.64c-1.91,0.93-4.17,1.89-6.77,2.85 c-1.3,0.48-2.68,0.99-4.14,1.52c-4.36,1.6-9.37,3.43-14.96,5.4c-5.59,1.97-11.77,4.08-18.52,6.08c-2.25,0.67-4.56,1.32-6.94,1.95 c-2.27,0.6-4.6,1.18-6.96,1.71c-0.35,0.06-0.7,0.1-1.05,0.14c-0.35,0.04-0.7,0.07-1.05,0.14c-1.19,0.23-2.38,0.48-3.57,0.76 l-0.66,0.16c-0.4,0.07-0.79,0.15-1.19,0.22c-0.13,0.02-0.26,0.05-0.4,0.07c-2.57,0.37-5.19,0.63-7.82,0.71s-5.27-0.03-7.89-0.4 c-4.53-0.58-9.08-2.22-14.08-4.15c1.63-0.67,3.22-1.37,4.74-2.08c3.44-1.65,6.59-3.39,9.46-5.14c2.86-1.75,5.44-3.51,7.74-5.19 c1.15-0.84,2.22-1.67,3.22-2.47c3.01-2.4,5.36-4.56,7.02-6.29c1.1-1.15,1.92-2.08,2.41-2.77c0.48-0.68,0.73-1.04,0.73-1.04 s-0.36,0.25-1.03,0.73c-0.66,0.47-1.71,1.09-3.06,1.84c-2.03,1.13-4.81,2.52-8.2,4.07c-1.13,0.52-2.33,1.05-3.59,1.6 c-3.78,1.64-8.14,3.42-12.93,5.15c-1.6,0.58-3.24,1.15-4.93,1.7c-3.36,1.16-6.92,2.13-10.57,3.02c-1.69,0.36-3.41,0.69-5.12,0.93 c-1.71,0.25-3.42,0.42-5.1,0.48c-1.08-0.12-2.15-0.28-3.22-0.33c-7.31-0.39-14.59,0.61-21.62,2.14 c-3.53,0.77-6.98,1.66-10.45,2.59c-3.49,0.95-7.15,2.04-10.87,3.58c-1.8,0.75-3.63,1.64-5.43,2.66c-0.35-2.78-0.57-5.54-0.8-8.3 c-0.76-12.62-1.02-25.27,1-37.7c0.1-0.6,0.1-1.16,0.11-1.72c2.21-0.89,4.64-1.55,7.17-2.03c5.06-0.97,10.25-1.28,15.47-1.28 c2.61,0,5.23,0.09,7.84,0.22c2.61,0.13,5.23,0.3,7.82,0.46c10.38,0.72,20.8,1.34,30.57,0.12c9.75-1.09,18.96-4.24,25.93-9.11 c3.46-2.38,6.38-4.88,9.12-7.16c2.75-2.3,5.33-4.51,7.7-6.65c4.74-4.27,8.55-8.3,11.33-11.85c0.7-0.88,1.34-1.73,1.92-2.55 c1.73-2.43,2.94-4.52,3.75-6.08c0.57-1.03,0.91-1.86,1.18-2.4c0.25-0.54,0.38-0.82,0.38-0.82s-0.17,0.25-0.51,0.75 c-0.35,0.49-0.81,1.25-1.53,2.17c-1.38,1.87-3.55,4.52-6.72,7.54c-3.16,3.03-7.31,6.4-12.42,9.96c-2.55,1.79-5.33,3.64-8.3,5.6 c-1.49,0.98-3.01,2-4.57,2.99c-1.56,0.99-3.15,1.96-4.79,2.84c-3.24,1.77-6.83,3.14-10.72,4.09c-3.89,0.95-8.06,1.5-12.47,1.63 c-8.83,0.36-18.34-0.87-28.77-2.23c-2.68-0.33-5.45-0.66-8.28-0.95l0.25-0.18c1.45-1.01,2.85-1.95,4.24-2.75 c2.8-1.65,5.36-2.54,8.6-3.2c3.16-0.68,6.7-1.16,10.19-2.24c3.44-1.03,6.59-2.49,9.45-4.12c2.86-1.64,5.42-3.48,7.73-5.4 c1.15-0.96,2.24-1.94,3.27-2.93c1.03-0.99,2-1.99,2.92-2.98c1.82-2.01,3.44-4,4.9-5.92c4.36-5.77,7.2-10.99,9.37-14.82 c1.41-2.58,2.47-4.6,3.18-5.97c0.71-1.37,1.07-2.1,1.07-2.1l0,0l0,0c0,0-1.11,1.45-3.18,4.13c-0.69,0.89-1.48,1.93-2.38,3.09 c-3.62,4.56-8.78,11.37-16.43,18.02c-3.84,3.27-8.35,6.48-13.58,8.84c-2.61,1.17-5.38,2.16-8.28,2.77 c-1.42,0.32-2.94,0.54-4.55,0.73c-1.61,0.2-3.32,0.37-5.14,0.63c-1.82,0.26-3.74,0.61-5.73,1.2c-2,0.59-3.91,1.4-5.7,2.32 c-1.8,0.91-3.49,1.93-5.12,2.97l-1.21,0.78c-0.4,0.26-0.81,0.53-1.1,0.7c-0.62,0.39-1.34,0.78-2.08,1.15 c-4.37,2.13-9.53,3.96-14.71,5.27c-0.44,0.05-0.87,0.06-1.31,0.12l0.04-0.05c-0.01,0-0.02,0-0.03,0l0,0 c-0.15,0.03-0.27,0.05-0.42,0.09c-0.12,0.02-0.24,0.02-0.37,0.03c-1.27,0.2-2.56,0.48-3.86,0.77c-0.69,0.11-1.31,0.18-1.95,0.25 c-0.3,0.03-0.63,0.09-0.92,0.12c-0.51,0.05-0.96,0.04-1.43,0.05c-0.35,0.01-0.73,0.05-1.05,0.04c-0.42-0.01-0.78-0.08-1.16-0.13 c-0.32-0.04-0.66-0.05-0.96-0.11c-0.32-0.07-0.58-0.2-0.87-0.31c-0.29-0.1-0.61-0.18-0.87-0.31c-0.23-0.12-0.41-0.31-0.61-0.46 c-0.26-0.19-0.54-0.35-0.76-0.58c-0.15-0.16-0.24-0.37-0.37-0.55c-0.22-0.31-0.46-0.59-0.62-0.96c-0.07-0.16-0.11-0.37-0.17-0.54 c-0.17-0.46-0.34-0.93-0.45-1.49c-0.02-0.13-0.02-0.29-0.04-0.43c-0.1-0.67-0.18-1.37-0.2-2.19c0.02-0.44,0.01-0.92,0.02-1.39 c0.05-0.47,0.1-0.92,0.12-1.37c0.06-1.51,1.26-3.87,1.84-5.52c0.28-0.8,0.63-1.65,1.01-2.5c0.39-0.85,0.82-1.77,1.21-2.48 c0.8-1.51,1.69-2.83,2.7-3.98c1.96-2.3,4.68-3.94,8.25-5.83c0.89-0.48,1.78-0.95,2.66-1.43c0.76-0.41,1.54-0.81,2.34-1.17 c1.59-0.74,3.25-1.4,4.94-2c6.78-2.45,13.96-3.75,21.02-6.24c3.5-1.25,6.93-2.87,9.91-5.05c2.99-2.19,5.39-4.82,7.17-7.53 c0.9-1.36,1.67-2.73,2.34-4.07c2.01-4.05,3.09-7.98,3.9-11.47c0.52-2.34,0.91-4.52,1.2-6.52c0.27-2,0.44-3.84,0.62-5.48 c0.16-1.64,0.31-3.1,0.43-4.36c0.38-3.79,0.58-5.83,0.58-5.83l0,0v0c0,0-0.61,1.96-1.74,5.58c-0.38,1.21-0.81,2.6-1.3,4.17 c-0.48,1.56-1.01,3.3-1.59,5.19c-0.63,1.88-1.36,3.89-2.22,5.99c-1.72,4.18-3.99,8.83-7.49,12.75c-0.87,0.98-1.82,1.9-2.85,2.73 c-1.03,0.83-2.14,1.58-3.33,2.23c-2.38,1.3-5.17,2.25-8.25,2.97c-3.62,0.86-7.74,1.45-12.13,2.2c0.47-0.83,0.98-1.63,1.35-2.5 c1.22-2.87,1.83-6.03,1.65-9.08c-0.08-1.56-0.36-2.99-0.72-4.3c-0.36-1.31-0.81-2.5-1.21-3.59c-0.42-1.1-0.82-2.11-1.16-3.07 s-0.63-1.86-0.81-2.74c-0.44-1.78-0.55-3.58-0.47-5.33c0.12-3.52,1.11-6.78,2.12-9.59c1.05-2.81,2.21-5.19,3.19-7.12 c0.99-1.93,1.81-3.42,2.36-4.43c0.56-1.01,0.85-1.54,0.85-1.54s-0.1,0.11-0.3,0.33c-0.2,0.22-0.5,0.54-0.89,0.96 c-0.78,0.85-1.92,2.12-3.31,3.83c-1.39,1.71-3.06,3.85-4.72,6.59c-1.62,2.75-3.37,6.09-4.23,10.32c-0.44,2.1-0.66,4.41-0.44,6.83 c0.08,1.23,0.28,2.43,0.53,3.6c0.25,1.17,0.54,2.3,0.79,3.38c0.26,1.09,0.49,2.13,0.64,3.13c0.15,1,0.22,1.94,0.14,2.83 c-0.11,1.82-0.65,3.67-1.62,5.45c-0.95,1.78-2.31,3.48-3.93,4.97c-0.81,0.75-1.71,1.43-2.63,2.07l-1.6,1.02l-1.85,1.2 c-1.33,0.89-2.55,1.76-3.8,2.65c-0.48,0.22-0.97,0.44-1.45,0.66c-1.86,0.85-3.93,1.82-6.05,3.1c-2.12,1.27-4.28,2.92-6.14,4.86 c-1.42,1.47-2.62,3.11-3.7,4.78c-1.08-1.67-2.28-3.31-3.7-4.78c-1.86-1.94-4.01-3.59-6.14-4.86c-2.12-1.28-4.19-2.25-6.05-3.1 c-0.49-0.22-0.97-0.44-1.45-0.66c-1.26-0.89-2.47-1.76-3.8-2.65l-1.84-1.2l-1.6-1.02c-0.93-0.64-1.82-1.32-2.63-2.07 c-1.62-1.5-2.99-3.19-3.93-4.97c-0.97-1.78-1.51-3.63-1.62-5.45c-0.15-1.78,0.26-3.79,0.79-5.96c0.26-1.08,0.55-2.22,0.79-3.38 c0.25-1.17,0.45-2.37,0.53-3.6c0.22-2.42,0-4.73-0.44-6.83c-0.86-4.22-2.61-7.57-4.23-10.32c-1.66-2.74-3.33-4.88-4.72-6.59 c-0.7-0.85-1.33-1.6-1.89-2.23c-0.56-0.64-1.04-1.17-1.42-1.59c-0.39-0.42-0.69-0.75-0.89-0.96c-0.2-0.22-0.3-0.33-0.3-0.33 s0.29,0.53,0.85,1.54c0.55,1.01,1.37,2.5,2.36,4.43c0.98,1.93,2.15,4.31,3.19,7.12c1.01,2.81,2,6.07,2.12,9.59 c0.08,1.75-0.03,3.55-0.47,5.33c-0.36,1.77-1.15,3.62-1.98,5.81c-0.41,1.09-0.85,2.28-1.21,3.59c-0.36,1.31-0.64,2.74-0.72,4.3 c-0.18,3.05,0.43,6.22,1.65,9.08c0.37,0.88,0.88,1.68,1.35,2.5c-4.39-0.76-8.51-1.35-12.13-2.2c-3.09-0.73-5.87-1.67-8.25-2.97 c-1.19-0.65-2.3-1.4-3.33-2.23s-1.99-1.75-2.85-2.73c-3.51-3.92-5.77-8.57-7.49-12.75c-0.86-2.1-1.59-4.11-2.22-5.99 c-0.58-1.9-1.11-3.63-1.59-5.19c-1.47-4.71-2.44-7.84-2.84-9.11c-0.13-0.42-0.2-0.64-0.2-0.64v0l0,0c0,0,0.09,0.91,0.26,2.64 s0.42,4.27,0.75,7.55c0.18,1.64,0.36,3.48,0.62,5.48c0.3,2,0.68,4.18,1.2,6.52c0.54,2.32,1.2,4.85,2.17,7.47 c0.97,2.62,2.26,5.35,4.06,8.07c1.78,2.71,4.18,5.35,7.17,7.53c2.99,2.18,6.41,3.8,9.91,5.05c7.05,2.49,14.24,3.79,21.02,6.24 c1.69,0.6,3.34,1.26,4.94,2c0.8,0.37,1.58,0.76,2.34,1.17c0.88,0.47,1.77,0.95,2.66,1.43c3.57,1.89,6.29,3.53,8.25,5.83 c1.01,1.15,1.9,2.47,2.7,3.98c0.39,0.71,0.82,1.63,1.21,2.48c0.38,0.85,0.73,1.7,1.01,2.5c0.58,1.65,1.78,4.01,1.84,5.52 c0.03,0.45,0.07,0.9,0.12,1.37c0.01,0.47,0,0.95,0.02,1.39c-0.01,0.81-0.09,1.51-0.2,2.19c-0.02,0.13-0.02,0.3-0.04,0.43 c-0.1,0.56-0.28,1.03-0.45,1.49c-0.06,0.17-0.1,0.38-0.17,0.54c-0.17,0.37-0.4,0.66-0.62,0.96c-0.13,0.18-0.22,0.4-0.37,0.55 c-0.22,0.23-0.5,0.39-0.76,0.58c-0.21,0.15-0.38,0.34-0.61,0.46c-0.26,0.14-0.58,0.21-0.87,0.31c-0.29,0.1-0.55,0.24-0.87,0.31 c-0.29,0.06-0.64,0.07-0.96,0.11c-0.38,0.05-0.74,0.12-1.16,0.13c-0.33,0.01-0.71-0.03-1.06-0.04c-0.47-0.01-0.92-0.01-1.43-0.05 c-0.29-0.03-0.62-0.08-0.92-0.12c-0.63-0.07-1.26-0.14-1.95-0.25c-1.3-0.3-2.59-0.57-3.86-0.77c-0.12-0.02-0.24-0.02-0.37-0.03 c-0.15-0.03-0.27-0.05-0.42-0.09l0,0c-0.01,0-0.02,0-0.03,0l0.04,0.05c-0.44-0.06-0.87-0.07-1.31-0.12 c-5.19-1.32-10.34-3.14-14.71-5.27c-0.74-0.37-1.46-0.76-2.08-1.15c-0.29-0.17-0.7-0.43-1.1-0.7l-1.21-0.78 c-1.63-1.03-3.32-2.05-5.12-2.97c-1.79-0.92-3.7-1.73-5.7-2.32c-1.99-0.59-3.92-0.94-5.73-1.2c-1.82-0.26-3.53-0.43-5.14-0.63 c-1.61-0.19-3.12-0.41-4.55-0.73c-2.9-0.61-5.67-1.6-8.28-2.77c-5.22-2.36-9.74-5.56-13.58-8.84 c-7.65-6.65-12.81-13.46-16.43-18.02c-1.79-2.32-3.18-4.13-4.12-5.35c-0.94-1.22-1.44-1.87-1.44-1.87l0,0l0,0 c0,0,0.36,0.73,1.07,2.1c0.71,1.37,1.78,3.39,3.19,5.97c2.16,3.83,5.01,9.05,9.37,14.82c1.45,1.92,3.08,3.91,4.9,5.92 c0.92,0.99,1.89,1.99,2.92,2.98c1.03,0.99,2.12,1.97,3.27,2.93c2.3,1.92,4.87,3.76,7.73,5.4c2.86,1.63,6.01,3.09,9.45,4.12 c3.48,1.08,7.02,1.56,10.19,2.24c3.24,0.67,5.8,1.55,8.6,3.2c1.39,0.8,2.79,1.74,4.24,2.75l0.25,0.18 c-2.83,0.29-5.6,0.62-8.28,0.95c-10.43,1.36-19.94,2.58-28.77,2.23c-4.41-0.13-8.58-0.68-12.47-1.63 c-3.89-0.95-7.48-2.32-10.72-4.09c-1.64-0.89-3.23-1.85-4.79-2.84c-1.56-0.99-3.07-2-4.57-2.99c-2.97-1.96-5.75-3.81-8.3-5.6 c-5.11-3.56-9.26-6.93-12.42-9.96c-3.17-3.02-5.35-5.67-6.72-7.54c-0.72-0.92-1.18-1.68-1.53-2.17c-0.34-0.49-0.51-0.75-0.51-0.75 s0.13,0.28,0.38,0.82c0.26,0.54,0.6,1.37,1.18,2.4c0.54,1.04,1.26,2.32,2.19,3.77c0.93,1.46,2.08,3.09,3.48,4.86 c2.78,3.55,6.59,7.58,11.33,11.85c2.36,2.14,4.95,4.35,7.7,6.65c2.74,2.28,5.65,4.79,9.12,7.16c6.98,4.87,16.19,8.02,25.93,9.11 c9.77,1.22,20.19,0.6,30.57-0.12c5.19-0.34,10.45-0.67,15.67-0.68c5.22-0.01,10.41,0.31,15.47,1.28c2.53,0.48,4.96,1.14,7.17,2.03 c0.01,0.56,0.01,1.13,0.11,1.72c2.01,12.42,1.75,25.08,1,37.7c-0.23,2.76-0.45,5.52-0.8,8.3c-1.8-1.03-3.62-1.91-5.43-2.66 c-3.72-1.55-7.38-2.63-10.87-3.58c-3.47-0.93-6.92-1.82-10.45-2.59c-7.03-1.52-14.31-2.53-21.62-2.14 c-1.07,0.06-2.15,0.21-3.22,0.33c-1.68-0.06-3.39-0.23-5.1-0.48c-1.71-0.25-3.43-0.57-5.12-0.93c-3.64-0.9-7.2-1.86-10.57-3.02 c-1.69-0.56-3.33-1.13-4.93-1.7c-4.79-1.73-9.15-3.51-12.93-5.15c-1.26-0.55-2.46-1.08-3.59-1.6c-3.39-1.55-6.16-2.94-8.2-4.07 c-1.35-0.75-2.4-1.37-3.06-1.84c-0.67-0.48-1.03-0.73-1.03-0.73s0.25,0.36,0.73,1.04c0.49,0.69,1.31,1.62,2.41,2.77 c1.66,1.72,4.01,3.89,7.02,6.29c1,0.8,2.08,1.62,3.22,2.47c2.3,1.68,4.87,3.44,7.74,5.19c2.87,1.75,6.02,3.5,9.46,5.14 c1.52,0.71,3.11,1.4,4.74,2.08c-5.01,1.93-9.55,3.57-14.08,4.15c-3.93,0.55-7.91,0.52-11.83,0.16c-1.3-0.12-2.6-0.28-3.89-0.46 c-0.13-0.02-0.26-0.05-0.4-0.07c-0.4-0.07-0.79-0.16-1.19-0.22l-0.66-0.16c-1.18-0.27-2.38-0.53-3.57-0.76 c-0.35-0.07-0.7-0.1-1.05-0.14c-0.35-0.04-0.7-0.08-1.05-0.14c-2.37-0.53-4.69-1.11-6.96-1.71c-2.38-0.63-4.69-1.28-6.94-1.95 c-6.75-2-12.93-4.12-18.52-6.08c-1.86-0.66-3.66-1.3-5.39-1.93c-5.19-1.87-9.79-3.56-13.71-5c-2.6-0.96-4.86-1.92-6.77-2.85 c-1.91-0.93-3.47-1.82-4.68-2.64c-1.22-0.8-2.09-1.51-2.67-1.98c-0.57-0.49-0.86-0.75-0.86-0.75s0.26,0.29,0.76,0.85 c0.52,0.55,1.3,1.37,2.43,2.33c1.67,1.47,4.17,3.22,7.44,5.07c1.09,0.62,2.26,1.24,3.52,1.87c1.26,0.63,2.58,1.29,3.97,1.98 c4.17,2.07,8.96,4.4,14.37,6.94c4.71,2.19,9.94,4.54,15.62,6.85c-0.14,0.05-0.29,0.08-0.43,0.13c-3.74,1.45-7.07,2.81-10.19,4.09 c-3.13,1.37-5.77,2.29-8.33,2.81c-2.52,0.54-4.77,0.75-6.62,0.82c-0.93,0.03-1.75,0.03-2.47,0.01c-0.72-0.02-1.33-0.05-1.82-0.09 c-0.99-0.09-1.51-0.13-1.51-0.13s0.49,0.19,1.44,0.5c0.95,0.31,2.38,0.71,4.27,1.07c1.89,0.33,4.25,0.61,7.03,0.55 c1.38-0.01,2.89-0.15,4.45-0.39c1.57-0.24,3.19-0.58,4.79-1c3.28-0.8,6.87-1.67,10.72-2.6c3.41-0.82,7.18-0.85,11.2-0.2 c2.01,0.32,4.09,0.79,6.23,1.36c1.08,0.3,2.17,0.61,3.27,0.92l1.68,0.5l0.85,0.26l1.04,0.28c3.48,0.85,6.82,0.93,9.99,0.91 c2.39,0.16,4.84,0.22,7.36,0.04c3.21-0.22,6.54-0.81,9.65-1.64c3.14-0.82,6.15-1.82,9.1-2.76c2.94-0.94,5.82-1.84,8.64-2.43 c2.8-0.62,5.62-0.89,8.57-0.91c5.89-0.04,12.09,1.04,18.48,2.67c3.19,0.82,6.47,1.78,9.77,2.78c3.27,1,6.41,2.05,9.29,3.34 c1.44,0.64,2.8,1.34,4.07,2.12c1.27,0.77,2.44,1.62,3.5,2.55c0.19,0.17,0.35,0.37,0.53,0.56c-3.2,16.09-8.26,31.86-14.75,45.96 c-0.39,0.85-0.79,1.7-1.19,2.55l-0.08,0.17c-0.77,1.56-1.43,2.92-2.01,4.14c-3.29,6.83-7.46,10.77-12.52,13.73 c-5.79,3.4-11.45,6.03-16.82,7.16c-5.2,1.19-10.89,0.34-16.88-0.8c-8.27-1.57-16.35-3.43-24.27-4.91 c-5.03-1.45-10.04-2.77-15.08-3.47c-3.25-0.5-6.51-0.65-9.66-0.62c-3.12,0.09-5.87,0.36-8.3,0.09c-2.37-0.2-4.53-1.17-6.99-2.24 c-2.47-1.05-4.94-1.96-7.33-2.55c-9.62-2.5-17.69-1.68-22.92-0.56c-2.64,0.55-4.62,1.22-5.95,1.68c-1.31,0.5-2,0.77-2,0.77 s2.86-0.88,8.12-1.3c5.21-0.42,13-0.23,21.64,2.96c2.17,0.77,4.31,1.8,6.53,2.98c0.59,0.32,1.23,0.67,1.9,1.01 c-0.62,0.12-1.28,0.18-1.89,0.32c-9.68,2.12-17.26,6.63-23.78,9.96c-6.52,3.46-12.3,5.91-17.34,6.96 c-5.01,1.11-9.09,1.01-11.77,0.56c-2.7-0.44-4.06-0.97-4.06-0.97s1.28,0.69,3.97,1.44c2.67,0.76,6.84,1.32,12.16,0.69 c5.32-0.56,11.66-2.57,18.54-5.48c6.92-2.83,14.49-6.46,23.32-7.68c8.85-1.33,18.81-0.72,29.31,1.3 c8.16,1.53,16.69,3.92,25.81,6.26c-4.57,3.02-8.18,6.29-11.91,8.45c-10.98,6.38-21.71,8.82-28.86,10.18 c-7.27,1.28-11.43,1.17-11.43,1.17s4.08,0.82,11.61,0.57c7.48-0.39,18.51-1.3,31.31-7c6.41-3,12.24-7.9,18.63-9.98 c0.84-0.27,1.81-0.53,2.51-0.57c6.49,0,10.9,1.85,16.99,0.72c3.24-0.59,6.22-2.06,9.16-2.73c2.94-0.67,6.18-1.1,9.45-1.51 c3.07-0.38,6.23-0.71,9.47-1.03c0,0,0,0,0,0c6.23-0.26,14.26,2.46,16.3,4.34c2.04,1.88,3,4.37,3,8.16s-9.08,8.17-12.29,8.63 c-3.2,0.45-5.92,0.25-9.03,0.02c-25.17-2-47.6,3.05-65.22,8.89c-17.85,5.75-30.76,13.74-40.91,14.69 c-5.01,0.68-9.01,0.19-11.61-0.48c-2.62-0.66-3.9-1.33-3.9-1.33s1.19,0.81,3.76,1.78c2.55,0.97,6.6,1.93,11.89,1.76 c5.29-0.12,11.67-1.61,18.67-3.96c6.98-2.36,14.8-4.91,23.67-7.11c15.24-3.8,33.46-6.83,53.32-5.7c-3.24,2.73-5.88,5.4-8.57,7.29 c-3.11,2.35-6.37,3.24-10.61,4c-4.08,0.69-8.79,1.65-12.69,3.52c-3.95,1.8-7.4,4.16-10.26,6.85c-5.92,5.54-8.28,11.86-12.55,14.95 c-4.27,3.23-9.05,5.19-12.69,6.6c-3.75,1.35-6.87,1.69-8.98,1.59c-2.11-0.11-3.21-0.44-3.21-0.44s1.02,0.5,3.16,0.92 c2.13,0.41,5.43,0.51,9.51-0.39c4.05-1.02,8.87-2.24,14.25-5.39c5.59-3.35,8.88-9.76,14.14-13.6c2.65-2.04,5.74-3.76,9.13-4.95 c3.43-1.26,6.93-1.68,11.3-2.1c2.17-0.24,4.51-0.53,7-1.2c2.51-0.66,5.05-1.83,7.22-3.2c4.39-2.74,7.87-6.12,11.39-8.49 c3.45-2.47,9.36-4.48,14.31-4.59c6.83,0.49,14.13,2.54,16.02,9.83c1.06,4.12-0.58,7.98-3.07,11.44c-0.43,0.45-0.85,0.91-1.3,1.34 c-0.2,0.19-0.39,0.38-0.59,0.57c-0.82,0.76-1.67,1.5-2.52,2.21c-0.21,0.18-0.42,0.36-0.64,0.53c-0.03,0.02-0.05,0.04-0.08,0.06 c-3.11,2.18-6.16,4.33-9.12,6.41c-2.17,1.58-4.54,3.26-6.81,5.14c-1.33,0.75-2.66,1.36-4.25,1.74c-1.68,0.53-3.63,0.77-5.67,1.02 c-2.04,0.31-3.79,0.41-5.96,0.88c-4.27,0.97-8.02,2.89-11.1,5.27c-3.06,2.42-5.51,5.27-7.18,8.32c-1.74,3.08-2.5,6.13-3.41,8.67 c-0.88,2.58-1.89,4.71-3.34,6.39c-1.45,1.7-3.15,3.08-4.64,4.37c-2.96,2.58-5.43,4.31-7.29,5.2c-1.85,0.9-2.94,1.13-2.94,1.13 s1.1-0.05,3.12-0.69c2.02-0.62,4.84-2.06,8.15-4.25c1.64-1.08,3.55-2.23,5.46-3.97c1.94-1.74,3.52-4.24,4.74-6.83 c1.27-2.6,2.32-5.33,4-7.63c1.65-2.36,3.9-4.47,6.55-6.17c2.67-1.67,5.79-2.87,9.09-3.31c1.62-0.21,3.81-0.21,5.74-0.33 c0.34-0.01,0.72-0.04,1.07-0.06c-1.4,3.26-1.9,7.11-0.87,10.54c0.54,1.31,1.07,2.6,1.59,3.86c0.58,1.33,0.74,2,0.94,3.13 c0.55,4.19-0.33,8.82-1.25,12.42c-1,3.68-2.45,6.69-3.96,8.94c-1.5,2.27-3.06,3.78-4.19,4.71c-1.13,0.94-1.79,1.36-1.79,1.36 s0.73-0.26,2.06-0.97c1.32-0.69,3.23-1.91,5.27-4c4-4.26,8.69-11.58,9.42-22.86c0.01-1.36-0.27-3.25-0.63-4.38 c-0.33-1.22-0.67-2.47-1.02-3.74c-0.29-1.85,0.2-3.86,1.34-5.83c2.2-3.92,7.14-6.77,12.93-10.21c5.66-3.48,11.6-7.14,17.76-10.92 c1.8-1.17,3.77-2.54,5.68-4.25c1.91,1.71,3.88,3.08,5.68,4.25c6.15,3.79,12.09,7.44,17.76,10.92c5.79,3.44,10.73,6.29,12.93,10.21 c1.14,1.97,1.63,3.98,1.34,5.83c-0.35,1.27-0.69,2.52-1.02,3.74c-0.36,1.12-0.64,3.01-0.63,4.38c0.73,11.28,5.42,18.6,9.42,22.86 c2.04,2.09,3.94,3.31,5.27,4c1.32,0.7,2.06,0.97,2.06,0.97s-0.66-0.42-1.79-1.36c-1.13-0.93-2.68-2.44-4.19-4.71 c-1.52-2.25-2.96-5.26-3.96-8.94c-0.92-3.59-1.8-8.22-1.25-12.42c0.2-1.13,0.36-1.8,0.94-3.13c0.52-1.26,1.05-2.55,1.59-3.86 c1.04-3.42,0.54-7.28-0.87-10.54c0.35,0.01,0.73,0.04,1.07,0.06c1.93,0.12,4.12,0.12,5.74,0.33c3.3,0.44,6.42,1.65,9.09,3.31 c2.65,1.7,4.91,3.81,6.55,6.17c1.67,2.29,2.73,5.02,4,7.63c1.22,2.59,2.79,5.1,4.74,6.83c1.91,1.74,3.82,2.89,5.46,3.97 c3.31,2.19,6.13,3.63,8.15,4.25c2.01,0.64,3.12,0.69,3.12,0.69s-1.09-0.23-2.94-1.13c-1.86-0.89-4.33-2.62-7.29-5.2 c-1.49-1.29-3.19-2.67-4.64-4.37c-1.45-1.68-2.46-3.81-3.34-6.39c-0.9-2.54-1.67-5.58-3.41-8.67c-1.68-3.05-4.12-5.91-7.18-8.32 c-3.08-2.38-6.84-4.3-11.1-5.27c-2.17-0.48-3.92-0.57-5.96-0.88c-2.04-0.25-3.99-0.49-5.67-1.02c-1.59-0.39-2.93-0.99-4.25-1.74 c-2.27-1.88-4.64-3.56-6.81-5.14c-2.96-2.08-6.01-4.22-9.12-6.41c-0.03-0.02-0.05-0.04-0.08-0.06c-0.21-0.18-0.42-0.35-0.64-0.53 c-0.85-0.71-1.69-1.45-2.52-2.21c-0.2-0.19-0.39-0.38-0.59-0.57c-0.45-0.43-0.87-0.89-1.3-1.34c-2.49-3.46-4.13-7.33-3.07-11.44 c1.88-7.29,9.18-9.35,16.02-9.83c4.94,0.11,10.86,2.12,14.31,4.59c3.52,2.37,7,5.75,11.39,8.49c2.16,1.37,4.71,2.53,7.22,3.2 c2.49,0.67,4.83,0.95,7,1.2c4.37,0.42,7.88,0.84,11.3,2.1c3.39,1.2,6.48,2.91,9.13,4.95c5.26,3.83,8.56,10.24,14.14,13.6 c5.38,3.14,10.2,4.37,14.25,5.39c4.08,0.9,7.38,0.8,9.51,0.39c2.14-0.42,3.16-0.92,3.16-0.92s-1.1,0.33-3.21,0.44 c-2.11,0.1-5.23-0.24-8.98-1.59c-3.65-1.41-8.43-3.37-12.69-6.6c-4.27-3.09-6.63-9.41-12.55-14.95 c-2.87-2.68-6.31-5.05-10.26-6.85c-3.9-1.87-8.61-2.82-12.69-3.52c-4.24-0.77-7.5-1.66-10.61-4c-2.68-1.89-5.32-4.56-8.57-7.29 c19.86-1.12,38.08,1.91,53.32,5.7c8.86,2.2,16.69,4.75,23.67,7.11c6.99,2.34,13.37,3.84,18.67,3.96 c5.29,0.17,9.34-0.78,11.89-1.76c2.57-0.97,3.76-1.78,3.76-1.78s-1.29,0.66-3.9,1.33c-2.6,0.67-6.59,1.15-11.61,0.48 c-10.15-0.94-23.06-8.94-40.91-14.69c-17.62-5.84-40.05-10.89-65.22-8.89c-3.1,0.23-5.82,0.44-9.03-0.02 c-3.2-0.45-12.29-4.84-12.29-8.63s0.96-6.28,3-8.16c2.04-1.88,10.07-4.59,16.3-4.34c0,0,0,0,0,0c3.24,0.32,6.4,0.65,9.47,1.03 c3.27,0.41,6.51,0.83,9.45,1.51c2.94,0.68,5.92,2.14,9.16,2.73c6.09,1.12,10.5-0.72,16.99-0.72c0.7,0.04,1.67,0.3,2.51,0.57 c6.38,2.08,12.22,6.97,18.63,9.98c12.8,5.7,23.83,6.61,31.31,7c7.53,0.25,11.61-0.57,11.61-0.57s-4.16,0.11-11.43-1.17 c-7.15-1.36-17.87-3.8-28.86-10.18c-3.73-2.17-7.34-5.43-11.91-8.45c9.11-2.34,17.64-4.74,25.81-6.26 c10.5-2.02,20.46-2.63,29.31-1.3c8.83,1.22,16.4,4.86,23.32,7.68c6.88,2.91,13.22,4.92,18.54,5.48c5.32,0.63,9.49,0.07,12.16-0.69 c2.68-0.75,3.96-1.44,3.96-1.44S503.21,413.61,500.51,414.05z" style="fill: rgb(216, 212, 211);"/>
      <g>
        <path class="st2" d="M108.41,281.25c5.34,4.27,16.19,8.54,17.97,11.48c0,0-2.31-13.79-12.01-18.95c0,0,15.84,7.92,16.37,18.95 c0,0,6.32-10.14-4.18-19.93c-10.5-9.79-23.94-8.72-26.61-14.77C99.96,258.02,103.07,276.98,108.41,281.25z" style="fill: rgb(216, 212, 211);"/>
        <path class="st2" d="M137.98,266.47c0,0-2.22-10.64-9.9-14.35c0,0,12.54,5.66,13.29,14.21c0,0,4.59-8.07-3.86-15.35 c-8.45-7.28-18.85-6.04-21.11-10.65c0,0,3,14.62,7.27,17.77C127.95,261.26,136.51,264.24,137.98,266.47z" style="fill: rgb(216, 212, 211);"/>
        <path class="st2" d="M125.06,317c0,0,0.32-9.28-10.54-11.8c-10.86-2.52-19.5,3.41-23.64,0.37c0,0,9.45,11.55,14.7,12.36 c5.25,0.81,14.22-0.53,16.55,0.76c0,0-6.91-8.39-15.44-8.1C106.68,310.58,120.42,309.77,125.06,317z" style="fill: rgb(216, 212, 211);"/>
        <path class="st2" d="M93.43,296.13c3.53,0.54,9.55-0.35,11.12,0.51c0,0-4.64-5.64-10.37-5.45c0,0,9.23-0.54,12.35,4.31 c0,0,0.22-6.24-7.09-7.93c-7.3-1.69-13.1,2.29-15.89,0.25C83.55,287.82,89.9,295.59,93.43,296.13z" style="fill: rgb(216, 212, 211);"/>
        <path class="st0" d="M184.77,311.31c0,0,3.96-5.21-1.27-11.09c-5.23-5.88-12.62-5.98-13.77-9.42c0,0,0.73,10.5,3.43,13.11 c2.7,2.6,8.4,5.49,9.23,7.18c0,0-0.56-7.65-5.59-10.96C176.8,300.13,185.04,305.26,184.77,311.31z" style="fill: rgb(216, 212, 211);"/>
        <path class="st2" d="M188.03,179.77c0,0,4.34-6.32,2.48-12.05c0,0,3.23,9.15-0.76,13.71c0,0,6.35-1.6,5.94-9.45 c-0.42-7.86-6.12-12.55-4.87-15.95c0,0-5.99,8.66-5.51,12.38C185.79,172.12,188.45,177.94,188.03,179.77z" style="fill: rgb(216, 212, 211);"/>
        <path class="st2" d="M226.74,177.03c0,0,5.16-3.97,5.16-9.08c0,0,0.21,8.24-4.21,10.87c0,0,5.55,0.38,7.28-6.08 c1.73-6.46-1.65-11.74,0.25-14.16c0,0-7.11,5.42-7.69,8.55C226.94,170.26,227.56,175.65,226.74,177.03z" style="fill: rgb(216, 212, 211);"/>
        <path class="st2" d="M266.78,147.7c0,0,0.21,8.24-4.21,10.87c0,0,5.55,0.38,7.28-6.08s-1.65-11.74,0.25-14.16 c0,0-7.11,5.42-7.7,8.55c-0.59,3.13,0.03,8.52-0.79,9.9C261.62,156.78,266.78,152.82,266.78,147.7z" style="fill: rgb(216, 212, 211);"/>
        <path class="st2" d="M241.5,156.42c2.93,1.24,8.33,1.8,9.5,2.89c0,0-2.77-5.89-7.76-6.99c0,0,8.09,1.56,9.72,6.44 c0,0,1.56-5.34-4.38-8.41c-5.93-3.07-11.82-0.9-13.78-3.28C234.79,147.07,238.57,155.18,241.5,156.42z" style="fill: rgb(216, 212, 211);"/>
        <path class="st2" d="M253.24,150.75c0,0,2.37-4.74,0.56-8.48c0,0,3.08,5.96,0.78,9.46c0,0,4.2-1.69,3.17-7.03 c-1.03-5.34-5.38-8.01-4.84-10.46c0,0-3.28,6.49-2.6,8.99C250.98,145.73,253.35,149.46,253.24,150.75z" style="fill: rgb(216, 212, 211);"/>
        <path class="st2" d="M221.01,161.84c0,0,4.61-4.74,3.86-9.89c0,0,1.42,8.25-2.64,11.55c0,0,5.64-0.43,6.43-7.18 c0.79-6.74-3.38-11.56-1.82-14.28c0,0-6.35,6.49-6.48,9.73C220.22,155.01,221.63,160.34,221.01,161.84z" style="fill: rgb(216, 212, 211);"/>
        <path class="st2" d="M279.36,162.34c0,0-1.11,13.12-8.58,16.53c0,0,8.75,1.57,12.61-8.38c3.87-9.95-0.57-18.93,2.87-22.44 c0,0-12.23,7.37-13.71,12.24c-1.48,4.86-1.44,13.54-2.97,15.58C269.58,175.86,278.47,170.46,279.36,162.34z" style="fill: rgb(216, 212, 211);"/>
        <path class="st2" d="M212.65,169.94c0,0,0.43-6.6-3.48-10.03c0,0,6.43,5.36,5.48,10.5c0,0,4.01-3.98,0.23-9.63 c-3.77-5.64-10.07-6.61-10.65-9.68c0,0-0.62,9.06,1.38,11.61S212.15,168.39,212.65,169.94z" style="fill: rgb(216, 212, 211);"/>
        <path class="st0" d="M258.21,182.53c0,0,1.37-4-3.03-6.54c-4.4-2.54-8.95-1.11-10.35-2.98c0,0,2.58,6.29,4.76,7.34 c2.18,1.05,6.27,1.66,7.11,2.53c0,0-1.89-4.57-5.65-5.58C251.05,177.3,257.15,178.77,258.21,182.53z" style="fill: rgb(216, 212, 211);"/>
        <path class="st2" d="M254.1,164.47c-5.05-3.06-10.38-1.5-11.96-3.71c0,0,2.85,7.37,5.36,8.64c2.51,1.27,7.24,2.08,8.21,3.11 c0,0-2.09-5.36-6.44-6.62c0,0,7.05,1.86,8.19,6.26C257.47,172.15,259.16,167.53,254.1,164.47z" style="fill: rgb(216, 212, 211);"/>
        <path class="st2" d="M210.45,181.52c2.44,1.27,7.06,2.1,7.99,3.12c0,0-1.99-5.26-6.23-6.54c0,0,6.87,1.89,7.95,6.2 c0,0,1.7-4.5-3.21-7.54c-4.91-3.04-10.13-1.57-11.66-3.75C205.3,173.01,208.01,180.25,210.45,181.52z" style="fill: rgb(216, 212, 211);"/>
        <path class="st2" d="M464.7,292.73c0.53-11.03,16.37-18.95,16.37-18.95c-9.7,5.16-12.01,18.95-12.01,18.95 c1.78-2.94,12.64-7.21,17.97-11.48c5.34-4.27,8.45-23.22,8.45-23.22c-2.67,6.05-16.11,4.98-26.61,14.77 S464.7,292.73,464.7,292.73z" style="fill: rgb(216, 212, 211);"/>
        <path class="st2" d="M411.11,199.6c0.35-7.26,10.78-12.48,10.78-12.48c-6.39,3.4-7.91,12.48-7.91,12.48 c1.17-1.93,8.32-4.74,11.83-7.56c3.52-2.81,5.57-15.29,5.57-15.29c-1.76,3.98-10.6,3.28-17.52,9.73 C406.95,192.92,411.11,199.6,411.11,199.6z" style="fill: rgb(216, 212, 211);"/>
        <path class="st2" d="M439.02,302.8c0.72-2.57,7.94-8.04,11.04-12.35c3.1-4.31,1.46-19.15,1.46-19.15 c-0.73,5.09-11,7.1-16.81,16.63c-5.8,9.52,1.05,15.79,1.05,15.79c-1.91-8.37,8.28-17.61,8.28-17.61 C437.86,292,439.02,302.8,439.02,302.8z" style="fill: rgb(216, 212, 211);"/>
        <path class="st2" d="M454.08,266.33c0.75-8.55,13.29-14.21,13.29-14.21c-7.69,3.71-9.91,14.35-9.91,14.35 c1.47-2.23,10.03-5.21,14.3-8.36c4.28-3.15,7.27-17.77,7.27-17.77c-2.26,4.62-12.66,3.38-21.11,10.65 C449.48,258.27,454.08,266.33,454.08,266.33z" style="fill: rgb(216, 212, 211);"/>
        <path class="st2" d="M473.33,318.69c2.34-1.29,11.3,0.05,16.55-0.76c5.25-0.8,14.7-12.36,14.7-12.36 c-4.14,3.04-12.78-2.89-23.64-0.37c-10.86,2.52-10.54,11.8-10.54,11.8c4.64-7.22,18.37-6.41,18.37-6.41 C480.23,310.3,473.33,318.69,473.33,318.69z" style="fill: rgb(216, 212, 211);"/>
        <path class="st2" d="M488.92,295.5c3.12-4.85,12.35-4.31,12.35-4.31c-5.73-0.19-10.37,5.45-10.37,5.45 c1.57-0.86,7.59,0.03,11.12-0.51c3.53-0.54,9.88-8.3,9.88-8.3c-2.78,2.04-8.58-1.94-15.88-0.25 C488.71,289.27,488.92,295.5,488.92,295.5z" style="fill: rgb(216, 212, 211);"/>
        <path class="st2" d="M438.95,259.94c-1.39,4.16-10.33,4.28-16.66,11.39c-6.33,7.11-1.53,13.42-1.53,13.42 c-0.33-7.32,9.64-13.52,9.64-13.52c-6.09,4.01-6.76,13.25-6.76,13.25c0.99-2.05,7.9-5.54,11.16-8.69 C438.06,272.65,438.95,259.94,438.95,259.94z" style="fill: rgb(216, 212, 211);"/>
        <path class="st2" d="M418.38,239.98c-0.11-2.46,4.67-9.35,6.16-14.03c1.48-4.68-4.22-17.25-4.22-17.25 c0.82,4.68-7.63,9.41-10,19.45s5.46,13.58,5.46,13.58c-4.09-6.8,2.22-17.86,2.22-17.86 C414.25,230.82,418.38,239.98,418.38,239.98z" style="fill: rgb(216, 212, 211);"/>
        <path class="st2" d="M428.24,210.93c-0.95,10.27,7.29,12.69,7.29,12.69c-4.99-6.17-0.28-17.99-0.28-17.99 c-2.74,7.4,2.62,15.91,2.62,15.91c-0.45-2.43,3.33-9.91,4.15-14.75c0.82-4.84-6.57-16.5-6.57-16.5 C436.91,194.81,429.19,200.66,428.24,210.93z" style="fill: rgb(216, 212, 211);"/>
        <path class="st0" d="M413.05,311.09c0.82-1.69,6.53-4.58,9.23-7.18c2.7-2.6,3.43-13.11,3.43-13.11 c-1.15,3.44-8.54,3.54-13.77,9.42c-5.23,5.88-1.27,11.09-1.27,11.09c-0.27-6.05,7.97-11.18,7.97-11.18 C413.61,303.44,413.05,311.09,413.05,311.09z" style="fill: rgb(216, 212, 211);"/>
        <path class="st0" d="M398.94,251.98c0.1-1.88,4.24-6.75,5.72-10.2s-1.92-13.41-1.92-13.41c0.27,3.61-6.5,6.57-9.04,14.02 c-2.54,7.45,3.13,10.71,3.13,10.71c-2.59-5.47,3.01-13.39,3.01-13.39C396.49,244.72,398.94,251.98,398.94,251.98z" style="fill: rgb(216, 212, 211);"/>
        <path class="st2" d="M405.69,181.43c-3.99-4.55-0.76-13.71-0.76-13.71c-1.86,5.73,2.48,12.05,2.48,12.05 c-0.42-1.84,2.24-7.65,2.72-11.37c0.48-3.72-5.51-12.38-5.51-12.38c1.25,3.4-4.46,8.1-4.87,15.95 C399.34,179.84,405.69,181.43,405.69,181.43z" style="fill: rgb(216, 212, 211);"/>
        <path class="st2" d="M360.48,172.74c1.73,6.45,7.28,6.08,7.28,6.08c-4.42-2.63-4.21-10.87-4.21-10.87c0,5.11,5.16,9.08,5.16,9.08 c-0.82-1.37-0.2-6.77-0.79-9.9s-7.69-8.55-7.69-8.55C362.13,161,358.75,166.29,360.48,172.74z" style="fill: rgb(216, 212, 211);"/>
        <path class="st2" d="M325.59,152.5c1.73,6.46,7.28,6.08,7.28,6.08c-4.42-2.63-4.21-10.87-4.21-10.87c0,5.11,5.16,9.08,5.16,9.08 c-0.82-1.37-0.2-6.77-0.79-9.9c-0.59-3.13-7.69-8.55-7.69-8.55C327.25,140.76,323.87,146.04,325.59,152.5z" style="fill: rgb(216, 212, 211);"/>
        <path class="st2" d="M342.5,158.76c1.62-4.88,9.72-6.44,9.72-6.44c-4.99,1.1-7.76,6.99-7.76,6.99c1.17-1.09,6.57-1.65,9.5-2.89 c2.93-1.24,6.7-9.35,6.7-9.35c-1.96,2.38-7.84,0.21-13.78,3.28S342.5,158.76,342.5,158.76z" style="fill: rgb(216, 212, 211);"/>
        <path class="st2" d="M340.88,151.73c-2.3-3.5,0.78-9.46,0.78-9.46c-1.82,3.75,0.56,8.48,0.56,8.48c-0.11-1.3,2.26-5.03,2.94-7.53 c0.68-2.5-2.6-8.99-2.6-8.99c0.53,2.45-3.82,5.12-4.84,10.46C336.68,150.03,340.88,151.73,340.88,151.73z" style="fill: rgb(216, 212, 211);"/>
        <path class="st2" d="M366.79,156.33c0.79,6.74,6.43,7.18,6.43,7.18c-4.06-3.29-2.64-11.55-2.64-11.55 c-0.75,5.14,3.86,9.89,3.86,9.89c-0.62-1.5,0.79-6.83,0.66-10.06c-0.13-3.23-6.48-9.73-6.48-9.73 C370.17,144.77,366,149.59,366.79,156.33z" style="fill: rgb(216, 212, 211);"/>
        <path class="st2" d="M312.05,170.49c3.87,9.95,12.61,8.38,12.61,8.38c-7.47-3.41-8.58-16.53-8.58-16.53 c0.89,8.12,9.78,13.52,9.78,13.52c-1.54-2.04-1.5-10.71-2.97-15.58c-1.48-4.86-13.71-12.24-13.71-12.24 C312.62,151.56,308.18,160.55,312.05,170.49z" style="fill: rgb(216, 212, 211);"/>
        <path class="st2" d="M386.27,159.91c-3.91,3.43-3.48,10.03-3.48,10.03c0.5-1.54,5.04-4.69,7.03-7.23 c2-2.54,1.38-11.61,1.38-11.61c-0.57,3.08-6.87,4.04-10.65,9.68c-3.77,5.64,0.23,9.63,0.23,9.63 C379.84,165.27,386.27,159.91,386.27,159.91z" style="fill: rgb(216, 212, 211);"/>
        <path class="st0" d="M338.74,182.88c0.85-0.87,4.93-1.48,7.11-2.53c2.18-1.05,4.76-7.34,4.76-7.34 c-1.4,1.88-5.95,0.44-10.35,2.98c-4.4,2.54-3.03,6.54-3.03,6.54c1.06-3.76,7.15-5.24,7.15-5.24 C340.64,178.31,338.74,182.88,338.74,182.88z" style="fill: rgb(216, 212, 211);"/>
        <path class="st2" d="M339.74,172.51c0.96-1.03,5.7-1.84,8.21-3.11s5.36-8.64,5.36-8.64c-1.58,2.21-6.91,0.65-11.96,3.71 c-5.05,3.06-3.36,7.68-3.36,7.68c1.14-4.4,8.19-6.26,8.19-6.26C341.83,167.15,339.74,172.51,339.74,172.51z" style="fill: rgb(216, 212, 211);"/>
        <path class="st2" d="M390.51,198.55c1.87,10.57,10.81,10.74,10.81,10.74c-6.71-4.83-5.24-17.99-5.24-17.99 c-0.71,8.19,7.01,15.25,7.01,15.25c-1.12-2.31,0.62-10.87,0.11-15.96c-0.51-5.09-11.14-14.76-11.14-14.76 C394.78,179.98,388.64,187.98,390.51,198.55z" style="fill: rgb(216, 212, 211);"/>
        <path class="st2" d="M430.35,260.5c4.09-0.28,12.11-8.57,12.11-8.57c-3.38,2.07-9.65-3.05-18.17-1.81 c-8.53,1.24-8.88,8.4-8.88,8.4c4.03-5.26,14.56-3.75,14.56-3.75c-6.55-0.77-12.4,5.24-12.4,5.24 C419.44,259.18,426.25,260.78,430.35,260.5z" style="fill: rgb(216, 212, 211);"/>
        <path class="st2" d="M375.28,184.3c1.07-4.31,7.95-6.2,7.95-6.2c-4.23,1.28-6.23,6.54-6.23,6.54c0.93-1.02,5.55-1.86,7.99-3.12 c2.44-1.27,5.15-8.51,5.15-8.51c-1.53,2.18-6.75,0.71-11.66,3.75C373.58,179.8,375.28,184.3,375.28,184.3z" style="fill: rgb(216, 212, 211);"/>
        <path class="st0" d="M404.51,291.02c0.19-2.19,4.91-7.27,6.67-11.09c1.76-3.82-1.49-16.04-1.49-16.04 c0.14,4.28-7.35,6.72-10.44,15.07c-3.09,8.35,2.93,13.06,2.93,13.06c-2.58-6.82,3.87-15.26,3.87-15.26 C402.18,282.12,404.51,291.02,404.51,291.02z" style="fill: rgb(216, 212, 211);"/>
        <path class="st2" d="M459.2,236.37c-3.56,2.39-9.59-2.66-18.31-0.86c-8.72,1.81-9.51,9.41-9.51,9.41 c4.41-5.8,14.99-4.82,14.99-4.82c-6.59-0.43-12.9,6.27-12.9,6.27c1.96-1,8.77,0.3,12.94-0.23 C450.57,245.6,459.2,236.37,459.2,236.37z" style="fill: rgb(216, 212, 211);"/>
        <path class="st2" d="M455.33,208.5c-5.25,1.16-9.5,8.43-9.5,8.43c1.44-1.32,6.95-1.78,10.18-3.21 c3.23-1.43,9.04-11.45,9.04-11.45c-2.55,2.9-7.86-0.08-14.54,3.52c-6.68,3.59-6.49,10.37-6.49,10.37 C446.88,210.11,455.33,208.5,455.33,208.5z" style="fill: rgb(216, 212, 211);"/>
        <path class="st2" d="M453.81,219.25c-8.21,2.26-9.7,9.72-9.7,9.72c4.64-5.91,14.29-5.55,14.29-5.55 c-6.03-0.05-12.51,6.85-12.51,6.85c1.9-1.09,8.05-0.2,11.95-0.96c3.89-0.76,12.77-10.26,12.77-10.26 C467.09,221.58,462.03,216.99,453.81,219.25z" style="fill: rgb(216, 212, 211);"/>
        <path class="st2" d="M181.47,199.6c0,0-1.52-9.08-7.91-12.48c0,0,10.43,5.21,10.78,12.48c0,0,4.16-6.68-2.75-13.12 c-6.91-6.44-15.76-5.74-17.52-9.73c0,0,2.05,12.48,5.57,15.29C173.15,194.85,180.3,197.66,181.47,199.6z" style="fill: rgb(216, 212, 211);"/>
        <path class="st2" d="M160.73,287.93c-5.8-9.52-16.08-11.54-16.81-16.63c0,0-1.64,14.83,1.46,19.15 c3.1,4.31,10.33,9.78,11.04,12.35c0,0,1.16-10.8-5.02-16.7c0,0,10.19,9.24,8.28,17.61C159.69,303.71,166.54,297.45,160.73,287.93 z" style="fill: rgb(216, 212, 211);"/>
        <path class="st2" d="M174.69,284.75c0,0,4.8-6.31-1.53-13.42c-6.33-7.11-15.27-7.23-16.66-11.39c0,0,0.89,12.71,4.15,15.86 c3.26,3.15,10.17,6.64,11.16,8.69c0,0-0.68-9.25-6.76-13.25C165.05,271.23,175.02,277.43,174.69,284.75z" style="fill: rgb(216, 212, 211);"/>
        <path class="st2" d="M185.13,228.14c-2.37-10.04-10.82-14.76-10-19.45c0,0-5.71,12.57-4.22,17.25 c1.48,4.68,6.27,11.57,6.16,14.03c0,0,4.12-9.16,0.39-16.12c0,0,6.3,11.05,2.22,17.86C179.68,241.72,187.5,238.18,185.13,228.14z " style="fill: rgb(216, 212, 211);"/>
        <path class="st2" d="M160.2,205.63c0,0,4.71,11.82-0.28,17.99c0,0,8.24-2.42,7.29-12.69c-0.95-10.27-8.67-16.12-7.21-20.64 c0,0-7.39,11.66-6.57,16.5c0.82,4.84,4.6,12.32,4.15,14.75C157.58,221.54,162.94,213.03,160.2,205.63z" style="fill: rgb(216, 212, 211);"/>
        <path class="st0" d="M201.74,242.39c-2.54-7.45-9.31-10.4-9.04-14.02c0,0-3.4,9.97-1.92,13.41c1.48,3.44,5.62,8.32,5.72,10.2 c0,0,2.45-7.26-0.91-12.27c0,0,5.61,7.92,3.01,13.39C198.61,253.11,204.29,249.84,201.74,242.39z" style="fill: rgb(216, 212, 211);"/>
        <path class="st2" d="M207.1,223.53c0,0,4.83-5.95,3.44-11.81c0,0,2.49,9.38-1.86,13.6c0,0,6.46-1.08,6.68-8.95 c0.22-7.87-5.09-13-3.57-16.29c0,0-6.66,8.15-6.48,11.9C205.48,215.72,207.66,221.73,207.1,223.53z" style="fill: rgb(216, 212, 211);"/>
        <path class="st0" d="M219.73,223.02c0.6,3.12,3.16,7.92,2.9,9.49c0,0,3.34-5.59,1.47-10.34c0,0,3.22,7.59,0.08,11.66 c0,0,5.3-1.69,4.54-8.33c-0.77-6.64-5.85-10.32-4.97-13.27C223.74,212.24,219.12,219.89,219.73,223.02z" style="fill: rgb(216, 212, 211);"/>
        <path class="st0" d="M237.51,181.69c0,0,0.21,8.24-4.21,10.87c0,0,5.55,0.38,7.28-6.08c1.73-6.46-1.65-11.74,0.25-14.16 c0,0-7.11,5.42-7.69,8.55c-0.59,3.13,0.03,8.52-0.79,9.9C232.35,190.77,237.51,186.8,237.51,181.69z" style="fill: rgb(216, 212, 211);"/>
        <path class="st0" d="M243.93,229.26c-2.78-6.08-8.75-8.01-8.82-11.09c0,0-2.03,8.71-0.49,11.49c1.54,2.79,5.45,6.55,5.69,8.13 c0,0,1.46-6.34-1.8-10.29c0,0,5.41,6.22,3.67,11.07C242.18,238.58,246.7,235.34,243.93,229.26z" style="fill: rgb(216, 212, 211);"/>
        <path class="st0" d="M259.64,236.73c-2.5-5.47-7.87-7.21-7.94-9.98c0,0-1.83,7.84-0.44,10.34c1.38,2.51,4.9,5.9,5.12,7.32 c0,0,1.31-5.71-1.62-9.26c0,0,4.86,5.6,3.31,9.96C258.07,245.12,262.14,242.2,259.64,236.73z" style="fill: rgb(216, 212, 211);"/>
        <path class="st0" d="M335.8,236.73c2.5-5.47,7.87-7.21,7.94-9.98c0,0,1.83,7.84,0.44,10.34c-1.38,2.51-4.9,5.9-5.12,7.32 c0,0-1.31-5.71,1.62-9.26c0,0-4.86,5.6-3.31,9.96C337.37,245.12,333.3,242.2,335.8,236.73z" style="fill: rgb(216, 212, 211);"/>
        <path class="st0" d="M276.74,186.37c0,0-2.9,8.48-8.4,9.49c0,0,5.51,2.48,9.71-3.44c4.2-5.92,2.76-12.59,5.61-14.34 c0,0-9.29,2.84-11.07,5.81c-1.78,2.97-3.19,8.7-4.54,9.79C268.04,193.67,274.8,191.58,276.74,186.37z" style="fill: rgb(216, 212, 211);"/>
        <path class="st0" d="M215.3,248.02c-2.81-4.24-7.52-4.98-7.94-7.28c0,0-0.49,6.78,0.99,8.69c1.48,1.91,4.87,4.28,5.24,5.44 c0,0,0.34-4.94-2.57-7.52c0,0,4.8,4.04,4.07,7.88C215.1,255.23,218.11,252.26,215.3,248.02z" style="fill: rgb(216, 212, 211);"/>
        <path class="st0" d="M244.93,191.93c0,0,1.73,6.03-1.02,8.81c0,0,4.16-0.78,4.19-5.86c0.04-5.08-3.46-8.33-2.52-10.47 c0,0-4.19,5.35-4.03,7.77c0.17,2.41,1.65,6.27,1.31,7.43C242.87,199.6,245.91,195.69,244.93,191.93z" style="fill: rgb(216, 212, 211);"/>
        <path class="st2" d="M213.56,194.21c2.25,0.89,6.37,1.22,7.27,2.03c0,0-2.21-4.43-6.03-5.17c0,0,6.18,1.04,7.5,4.72 c0,0,1.09-4.09-3.48-6.32c-4.57-2.23-9.01-0.48-10.54-2.25C208.3,187.23,211.31,193.32,213.56,194.21z" style="fill: rgb(216, 212, 211);"/>
        <path class="st2" d="M192.35,206.55c0,0,7.72-7.06,7.01-15.25c0,0,1.47,13.17-5.24,17.99c0,0,8.94-0.16,10.81-10.74 c1.87-10.57-4.26-18.58-1.55-22.71c0,0-10.63,9.67-11.14,14.76C191.73,195.69,193.47,204.24,192.35,206.55z" style="fill: rgb(216, 212, 211);"/>
        <path class="st2" d="M180.04,258.53c0,0-0.35-7.16-8.88-8.4c-8.53-1.24-14.79,3.88-18.17,1.81c0,0,8.01,8.29,12.11,8.57 c4.09,0.28,10.91-1.32,12.79-0.48c0,0-5.86-6.01-12.4-5.24C165.48,254.77,176,253.27,180.04,258.53z" style="fill: rgb(216, 212, 211);"/>
        <path class="st0" d="M196.2,278.96c-3.09-8.35-10.58-10.78-10.44-15.07c0,0-3.25,12.22-1.49,16.04c1.76,3.82,6.47,8.9,6.67,11.09 c0,0,2.34-8.9-1.53-14.26c0,0,6.44,8.44,3.87,15.26C193.27,292.02,199.29,287.31,196.2,278.96z" style="fill: rgb(216, 212, 211);"/>
        <path class="st2" d="M164.07,244.92c0,0-0.8-7.6-9.51-9.41c-8.72-1.81-14.75,3.25-18.31,0.86c0,0,8.63,9.23,12.8,9.77 c4.17,0.54,10.98-0.76,12.94,0.23c0,0-6.31-6.7-12.9-6.27C149.08,240.1,159.66,239.12,164.07,244.92z" style="fill: rgb(216, 212, 211);"/>
        <path class="st2" d="M139.43,213.72c3.23,1.43,8.74,1.89,10.18,3.21c0,0-4.25-7.28-9.5-8.43c0,0,8.45,1.61,11.3,7.66 c0,0,0.19-6.77-6.49-10.37c-6.68-3.59-11.99-0.62-14.54-3.52C130.39,202.28,136.2,212.29,139.43,213.72z" style="fill: rgb(216, 212, 211);"/>
        <path class="st2" d="M137.61,229.31c3.89,0.76,10.04-0.12,11.95,0.96c0,0-6.47-6.9-12.51-6.85c0,0,9.65-0.36,14.29,5.55 c0,0-1.49-7.46-9.7-9.72c-8.21-2.26-13.28,2.33-16.79-0.2C124.84,219.05,133.71,228.55,137.61,229.31z" style="fill: rgb(216, 212, 211);"/>
        <path class="st0" d="M240.3,302.45c0,0,3.83-6.62-2.17-13.22c-5.99-6.59-13.85-6.05-15.33-10.08c0,0,1.56,12.56,4.61,15.44 c3.06,2.89,9.34,5.84,10.33,7.8c0,0-1.16-9.14-6.75-12.66C231.01,289.73,240.14,295.16,240.3,302.45z" style="fill: rgb(216, 212, 211);"/>
        <path class="st0" d="M216.78,287.44c-4.23-7.85-11.98-9.22-12.44-13.48c0,0-1.52,12.56,0.75,16.1c2.27,3.54,7.65,7.92,8.15,10.06 c0,0,1.08-9.15-3.5-13.92c0,0,7.56,7.47,5.95,14.58C215.69,300.79,221.01,295.29,216.78,287.44z" style="fill: rgb(216, 212, 211);"/>
        <path class="st2" d="M383.66,200.08c1.52,3.29-3.79,8.43-3.57,16.29c0.22,7.87,6.68,8.95,6.68,8.95 c-4.34-4.22-1.86-13.6-1.86-13.6c-1.39,5.86,3.44,11.81,3.44,11.81c-0.56-1.8,1.62-7.81,1.8-11.55 C390.32,208.23,383.66,200.08,383.66,200.08z" style="fill: rgb(216, 212, 211);"/>
        <path class="st0" d="M372.82,232.51c-0.26-1.58,2.3-6.37,2.9-9.49c0.6-3.12-4.02-10.78-4.02-10.78c0.88,2.95-4.2,6.63-4.97,13.27 c-0.76,6.64,4.54,8.33,4.54,8.33c-3.14-4.07,0.08-11.66,0.08-11.66C369.47,226.92,372.82,232.51,372.82,232.51z" style="fill: rgb(216, 212, 211);"/>
        <path class="st0" d="M354.86,186.48c1.73,6.46,7.28,6.08,7.28,6.08c-4.42-2.63-4.21-10.87-4.21-10.87c0,5.11,5.16,9.08,5.16,9.08 c-0.82-1.37-0.2-6.77-0.79-9.9c-0.59-3.13-7.69-8.55-7.69-8.55C356.52,174.74,353.14,180.03,354.86,186.48z" style="fill: rgb(216, 212, 211);"/>
        <path class="st0" d="M355.14,237.8c0.24-1.58,4.15-5.35,5.69-8.13c1.54-2.79-0.49-11.49-0.49-11.49 c-0.07,3.08-6.04,5.01-8.82,11.09c-2.78,6.08,1.75,9.32,1.75,9.32c-1.73-4.84,3.67-11.07,3.67-11.07 C353.68,231.46,355.14,237.8,355.14,237.8z" style="fill: rgb(216, 212, 211);"/>
        <path class="st0" d="M317.4,192.42c4.2,5.92,9.71,3.44,9.71,3.44c-5.5-1.01-8.4-9.49-8.4-9.49c1.93,5.21,8.69,7.3,8.69,7.3 c-1.35-1.09-2.76-6.82-4.54-9.79c-1.78-2.96-11.07-5.81-11.07-5.81C314.64,179.83,313.2,186.49,317.4,192.42z" style="fill: rgb(216, 212, 211);"/>
        <path class="st0" d="M381.85,254.87c0.37-1.16,3.75-3.53,5.24-5.44c1.48-1.91,0.99-8.69,0.99-8.69c-0.42,2.3-5.13,3.05-7.94,7.28 s0.21,7.21,0.21,7.21c-0.73-3.84,4.07-7.88,4.07-7.88C381.51,249.93,381.85,254.87,381.85,254.87z" style="fill: rgb(216, 212, 211);"/>
        <path class="st0" d="M351.53,200.73c-2.75-2.78-1.02-8.81-1.02-8.81c-0.98,3.76,2.06,7.67,2.06,7.67 c-0.34-1.17,1.15-5.02,1.31-7.43c0.17-2.42-4.03-7.77-4.03-7.77c0.94,2.14-2.56,5.39-2.52,10.47 C347.37,199.95,351.53,200.73,351.53,200.73z" style="fill: rgb(216, 212, 211);"/>
        <path class="st2" d="M373.13,195.79c1.32-3.68,7.5-4.72,7.5-4.72c-3.82,0.74-6.03,5.17-6.03,5.17c0.91-0.81,5.02-1.13,7.27-2.03 c2.25-0.89,5.26-6.99,5.26-6.99c-1.53,1.77-5.97,0.02-10.54,2.25C372.04,191.7,373.13,195.79,373.13,195.79z" style="fill: rgb(216, 212, 211);"/>
        <path class="st0" d="M382.21,300.12c0.5-2.14,5.88-6.53,8.15-10.06c2.27-3.54,0.75-16.1,0.75-16.1 c-0.46,4.27-8.22,5.64-12.44,13.48c-4.23,7.84,1.09,13.35,1.09,13.35c-1.61-7.12,5.95-14.58,5.95-14.58 C381.13,290.98,382.21,300.12,382.21,300.12z" style="fill: rgb(216, 212, 211);"/>
        <path class="st0" d="M357.69,302.4c1-1.96,7.28-4.91,10.34-7.8c3.06-2.89,4.61-15.44,4.61-15.44 c-1.47,4.03-9.33,3.49-15.33,10.08c-5.99,6.59-2.17,13.22-2.17,13.22c0.16-7.29,9.3-12.72,9.3-12.72 C358.85,293.26,357.69,302.4,357.69,302.4z" style="fill: rgb(216, 212, 211);"/>
      </g>
    </g>
    <g>
      <path class="st1" d="M77.18,701.17c1.46-0.79,3.62-1.36,6.48-1.73c2.86-0.36,5.44-0.97,7.75-1.81c0.28-1.12,0.45-1.94,0.5-2.44 c0.11-0.79,0.17-3.48,0.17-8.08L92,668.33l0.34-10.1l-0.17-7.83l0.17-4.55c0.17-6.12,0.25-11.84,0.25-17.17 c0-11.67-0.14-19.14-0.42-22.39l-4.97-1.01c-4.55-0.28-7.58-0.56-9.09-0.84l-0.17-5.05l0.34-0.93c2.81-0.45,5.39-0.67,7.75-0.67 c1.29,0,3.9-0.03,7.83-0.08c4.04,0.34,6.23,0.5,6.57,0.5l4.46-0.25l10.52-0.5c6.57-0.67,13.5-1.01,20.79-1.01 c11.5,0,20.65,2.93,27.44,8.8c6.79,5.87,10.19,12.59,10.19,20.16c0,5.67-1.83,10.82-5.5,15.45c-3.66,4.63-9.3,8.12-16.91,10.48 c0.67,1.18,1.56,2.55,2.68,4.13c2.35,3.37,4.25,6.23,5.7,8.59l13.42,21.8c3.37,5.78,5.57,9.16,6.61,10.14 c1.04,0.98,3.18,2.06,6.44,3.24c2.53,0.96,4.46,1.91,5.81,2.86c0.34,0.96,0.51,1.8,0.51,2.53c0,0.51-0.03,1.15-0.08,1.94h-2.27 l-1.68,0.08l-4.38-0.59h-3.45c-1.8-0.28-4.01-0.42-6.65-0.42l-8.42-0.08c-0.62,0-2.58,0.2-5.89,0.59 c-1.52,0.17-2.72,0.31-3.62,0.42l-2.86-5.56c-2.36-4.21-4.01-7.35-4.97-9.43c-2.47-5.44-6.71-14.11-12.71-26.01 c-2.81-5.5-4.77-8.62-5.89-9.34c-1.68-1.18-4.57-1.77-8.67-1.77c-1.12,0-3.03,0.06-5.72,0.17c-0.17,1.63-0.25,3.56-0.25,5.81 l0.42,18.69l-0.51,15.83c1.57,0.96,3.62,1.68,6.15,2.19c4.38,0.9,8.14,1.97,11.28,3.2c0,2.75-0.11,4.83-0.34,6.23 c-1.07-0.05-1.74-0.08-2.02-0.08l-3.45,0.17c-12.07-1.07-19.22-1.6-21.47-1.6c-1.46,0-2.5,0.03-3.12,0.08l-11.62,0.76 c-3.54,0.39-6.76,0.59-9.68,0.59h-3.62c-0.11-1.4-0.17-2.3-0.17-2.69C76.93,703.16,77.01,702.29,77.18,701.17z M115.06,646.7 c2.69,0.11,4.66,0.17,5.89,0.17c9.54,0,16.3-1.71,20.29-5.13c3.98-3.42,5.98-8,5.98-13.72c0-3.54-0.49-6.86-1.47-9.98 c-0.98-3.11-2.2-5.43-3.65-6.95c-2.07-2.19-4.79-3.84-8.14-4.97c-2.46-0.84-6.41-1.26-11.84-1.26c-2.58,0-4.79,0.14-6.63,0.42 l-0.17,1.6l0.17,11.37l-0.25,6.9l0.08,9.18c-0.11,2.58-0.2,5.92-0.25,10.02V646.7z" style="fill: rgb(216, 212, 211);"/>
      <path class="st1" d="M195.63,667.41c0-4.87,0.94-9.76,2.83-14.67c1.37-3.54,3.3-6.78,5.77-9.72s5.58-5.57,9.3-7.87 c3.73-2.3,7.54-3.95,11.42-4.95c3.89-1,8.23-1.5,13.02-1.5c8.17,0,15.25,1.53,21.26,4.6c6.01,3.06,10.74,7.21,14.19,12.43 c4.48,6.8,6.71,13.93,6.71,21.39c0,11.12-3.78,20.65-11.34,28.58s-18.07,11.9-31.53,11.9c-3.34,0-6.46-0.22-9.36-0.65 c-2.2-0.31-4.12-0.75-5.77-1.3c-2.98-0.98-4.65-1.55-5.01-1.71c-4.28-2.44-7.71-4.93-10.31-7.48c-2.59-2.55-4.79-5.44-6.59-8.66 c-0.98-1.81-2.1-5.07-3.36-9.78C196.04,674.99,195.63,671.46,195.63,667.41z M235.73,634.53c-3.41,0-6.44,0.79-9.06,2.39 c-2.63,1.59-4.61,3.35-5.94,5.27c-2.24,3.26-3.83,6.83-4.77,10.7c-0.94,3.87-1.41,8.57-1.41,14.11c0,3.38,0.14,5.79,0.41,7.25 c0.08,0.47,0.2,1.28,0.35,2.42c0.35,2.91,0.76,5.03,1.24,6.36c1.69,4.99,2.88,8.07,3.59,9.25c1.18,2,2.92,3.99,5.24,5.95 c1.18,1.02,2.88,1.95,5.12,2.8c2.24,0.84,4.47,1.27,6.71,1.27c4.24,0,8.17-0.99,11.8-2.98c3.63-1.98,6.54-5.35,8.74-10.11 c2.2-4.75,3.3-10.94,3.3-18.56c0-3.14-0.22-7.41-0.65-12.79l-0.29-1.12c-0.12-0.31-0.31-1.12-0.59-2.42 c-1.45-6.44-4.23-11.35-8.33-14.73C247.08,636.22,241.93,634.53,235.73,634.53z" style="fill: rgb(216, 212, 211);"/>
      <path class="st1" d="M291.15,667.41c0-4.87,0.94-9.76,2.83-14.67c1.37-3.54,3.3-6.78,5.77-9.72c2.47-2.95,5.58-5.57,9.3-7.87 c3.73-2.3,7.54-3.95,11.42-4.95c3.89-1,8.22-1.5,13.01-1.5c8.17,0,15.25,1.53,21.26,4.6c6.01,3.06,10.74,7.21,14.19,12.43 c4.48,6.8,6.71,13.93,6.71,21.39c0,11.12-3.78,20.65-11.34,28.58s-18.07,11.9-31.53,11.9c-3.34,0-6.46-0.22-9.36-0.65 c-2.2-0.31-4.12-0.75-5.77-1.3c-2.98-0.98-4.65-1.55-5-1.71c-4.28-2.44-7.71-4.93-10.31-7.48c-2.59-2.55-4.79-5.44-6.59-8.66 c-0.98-1.81-2.1-5.07-3.36-9.78C291.56,674.99,291.15,671.46,291.15,667.41z M331.25,634.53c-3.41,0-6.44,0.79-9.06,2.39 c-2.63,1.59-4.61,3.35-5.94,5.27c-2.24,3.26-3.83,6.83-4.77,10.7c-0.94,3.87-1.41,8.57-1.41,14.11c0,3.38,0.14,5.79,0.41,7.25 c0.08,0.47,0.2,1.28,0.35,2.42c0.35,2.91,0.76,5.03,1.24,6.36c1.69,4.99,2.88,8.07,3.59,9.25c1.18,2,2.92,3.99,5.24,5.95 c1.18,1.02,2.88,1.95,5.12,2.8c2.24,0.84,4.47,1.27,6.71,1.27c4.24,0,8.17-0.99,11.8-2.98c3.63-1.98,6.54-5.35,8.74-10.11 c2.2-4.75,3.3-10.94,3.3-18.56c0-3.14-0.22-7.41-0.65-12.79l-0.29-1.12c-0.12-0.31-0.31-1.12-0.59-2.42 c-1.45-6.44-4.23-11.35-8.33-14.73C342.6,636.22,337.45,634.53,331.25,634.53z" style="fill: rgb(216, 212, 211);"/>
      <path class="st1" d="M385.38,626.92h3.65c0.27,0.44,0.47,0.76,0.59,0.96c1.1,1.91,1.95,3.16,2.53,3.76 c0.51,0.12,3.2,0.18,8.07,0.18c3.02,0,5.72-0.01,8.07-0.04l1.18-0.13l7.13-0.06l13.32,0.06h18.21l3.48-0.48 c0.51-0.36,1.06-1.31,1.65-2.86c0.16-0.36,0.37-0.85,0.65-1.49l2.59-0.06c0.39,0,0.98,0.02,1.77,0.06 c0.04,2.71,0.06,6.8,0.06,12.26l0.06,5.25l-0.06,3c0,1.02-0.08,1.91-0.24,2.65c-1.61,0.51-3.03,0.82-4.24,0.94 c-1.02-1.53-2.14-3.75-3.34-6.66c-1.2-2.91-1.96-4.52-2.27-4.83c-0.47-0.51-1.02-0.84-1.65-1c-0.95-0.2-5.12-0.29-12.52-0.29 c-1.1,0-2.48,0.08-4.13,0.24c-0.2,1.53-0.3,2.79-0.3,3.77l0.06,7.9v17.33l0.18,18.68l-0.06,7.66c0,2.71,0.24,4.75,0.71,6.13 c0.63,0.28,1.8,0.53,3.49,0.77c0.32,0.04,1.78,0.35,4.38,0.94c1.18,0.28,2.23,0.59,3.14,0.94c0.2,1.41,0.3,2.28,0.3,2.59 c0,0.35-0.06,0.87-0.18,1.53c-0.86,0.04-1.57,0.06-2.12,0.06c-4.05,0-7.48-0.15-10.31-0.44c-2.83-0.29-7.96-0.44-15.38-0.44 c-1.18,0-4.64,0.24-10.37,0.71c-2.24,0.16-3.69,0.24-4.36,0.24c-0.04-0.59-0.08-1.04-0.12-1.36l-0.06-1.36v-0.47 c0.86-1.14,2.49-1.98,4.89-2.53c4.09-0.98,6.91-1.87,8.49-2.65c0.39-0.75,0.63-1.73,0.71-2.95c0.27-4.71,0.41-12.22,0.41-22.51 l-0.29-22.28c0-6.13-0.12-9.84-0.35-11.14c-0.08-0.35-0.22-0.62-0.41-0.79c-0.2-0.18-0.47-0.29-0.83-0.32 c-1.22-0.16-5.19-0.24-11.9-0.24c-3.69,0-6.17,0.35-7.43,1.06c-1.69,0.98-4.22,3.65-7.6,8.01c-0.98,1.26-1.71,1.89-2.18,1.89 c-1.81-0.94-2.97-1.71-3.48-2.3c1.22-2.55,2.91-7.66,5.07-15.32C384.65,629.22,385.1,627.71,385.38,626.92z" style="fill: rgb(216, 212, 211);"/>
      <path class="st1" d="M511.84,631.93c0.39,1.34,0.75,3.36,1.06,6.07c0.47,4.05,0.71,7.19,0.71,9.43c0,0.71-0.08,1.47-0.24,2.3 l-0.59,0.18l-4.24-0.29l-0.71-0.12c-1.73-5.19-3.46-8.7-5.19-10.55c-2.99-3.14-6.5-4.71-10.55-4.71c-3.85,0-6.91,1.01-9.16,3.04 c-2.26,2.03-3.39,4.53-3.39,7.52c0,2.52,1.12,4.93,3.36,7.25c2.2,2.32,6.87,4.54,14.03,6.65c2.4,0.71,5.3,1.84,8.7,3.41 c3.4,1.57,5.98,3.27,7.75,5.12c2.35,2.44,3.97,4.78,4.86,7.04c0.88,2.26,1.33,5.08,1.33,8.46c0,3.69-0.69,7.33-2.06,10.91 c-0.75,1.89-1.94,3.67-3.59,5.36c-1.18,1.18-3.01,2.57-5.48,4.16c-2.47,1.59-5.04,2.74-7.69,3.45c-2.65,0.71-6.06,1.06-10.22,1.06 c-2.75,0-6.03-0.39-9.84-1.18l-7.07-2.06c-1.96-0.55-3.2-1.04-3.71-1.47c-0.2-0.16-0.37-0.53-0.53-1.12v-0.65 c0-0.43-0.1-3.12-0.29-8.07c-0.08-2.55-0.12-4.36-0.12-5.42v-2.24l5.48-0.12c1.88,4.38,3.1,7.02,3.65,7.92 c1.21,2.01,2.56,3.64,4.03,4.88c1.47,1.24,3.22,2.23,5.26,2.96c2.04,0.73,4.26,1.09,6.65,1.09c2.12,0,4.45-0.45,7-1.36 c2.55-0.9,4.6-2.39,6.15-4.46c1.55-2.06,2.32-4.28,2.32-6.64c0-2.91-1.36-5.6-4.07-8.08c-1.65-1.53-6.09-3.58-13.32-6.14 c-7.23-2.56-12.24-4.84-15.03-6.84c-2.79-2-4.99-4.69-6.6-8.05c-1.61-3.36-2.42-6.59-2.42-9.7c0-6.25,2.24-11.55,6.72-15.92 s11.08-6.54,19.8-6.54c1.89,0,4.67,0.33,8.37,1C505.18,629.85,508.15,630.68,511.84,631.93z" style="fill: rgb(216, 212, 211);"/>
    </g>
  </g>
</svg>