<?xml version="1.0" encoding="utf-8"?>
<svg width="162" height="161.998" viewBox="0 0 162 161.998" xmlns="http://www.w3.org/2000/svg">
  <g id="monitoring" transform="translate(0)">
    <g id="Grupo_173" data-name="Grupo 173" transform="translate(0.002 121.499)">
      <path id="Trazado_271" data-name="Trazado 271" d="M141.748,58.5H20.25a20.25,20.25,0,0,1,0-40.5h121.5a20.25,20.25,0,0,1,0,40.5ZM20.25,24.75a13.5,13.5,0,1,0,0,27h121.5a13.5,13.5,0,1,0,0-27Z" transform="translate(0 -18)" style="fill: rgb(71, 106, 111);"/>
    </g>
    <g id="Grupo_174" data-name="Grupo 174" transform="translate(13.501 134.998)">
      <path id="Trazado_272" data-name="Trazado 272" d="M8.75,33.5a6.75,6.75,0,1,1,6.75-6.75A6.761,6.761,0,0,1,8.75,33.5Zm0-6.757h0l3.375.007Z" transform="translate(-2 -20)" style="fill: rgb(71, 106, 111);"/>
    </g>
    <g id="Grupo_175" data-name="Grupo 175" transform="translate(54.001 134.998)">
      <path id="Trazado_273" data-name="Trazado 273" d="M14.75,33.5a6.75,6.75,0,1,1,6.75-6.75A6.761,6.761,0,0,1,14.75,33.5Zm0-6.757h0l3.375.007Z" transform="translate(-8 -20)" style="fill: rgb(71, 106, 111);"/>
    </g>
    <g id="Grupo_176" data-name="Grupo 176" transform="translate(94.501 134.998)">
      <path id="Trazado_274" data-name="Trazado 274" d="M20.75,33.5a6.75,6.75,0,1,1,6.75-6.75A6.761,6.761,0,0,1,20.75,33.5Zm0-6.757h0l3.375.007Z" transform="translate(-14 -20)" style="fill: rgb(71, 106, 111);"/>
    </g>
    <g id="Grupo_177" data-name="Grupo 177" transform="translate(135 134.998)">
      <path id="Trazado_275" data-name="Trazado 275" d="M26.75,33.5a6.75,6.75,0,1,1,6.75-6.75A6.761,6.761,0,0,1,26.75,33.5Zm0-6.757h0l3.375.007Z" transform="translate(-20 -20)" style="fill: rgb(71, 106, 111);"/>
    </g>
    <g id="Grupo_178" data-name="Grupo 178" transform="translate(74.251 87.749)">
      <path id="Trazado_276" data-name="Trazado 276" d="M48.125,53.5H14.375A3.376,3.376,0,0,1,11,50.125V16.375A3.376,3.376,0,0,1,14.375,13h33.75A3.376,3.376,0,0,1,51.5,16.375v33.75A3.376,3.376,0,0,1,48.125,53.5ZM17.75,46.75h27v-27h-27Z" transform="translate(-11 -13)" style="fill: rgb(71, 106, 111);"/>
    </g>
    <g id="Grupo_179" data-name="Grupo 179" transform="translate(94.501 53.999)">
      <path id="Trazado_277" data-name="Trazado 277" d="M51.125,48.5H17.375A3.376,3.376,0,0,1,14,45.125V11.375A3.376,3.376,0,0,1,17.375,8h33.75A3.376,3.376,0,0,1,54.5,11.375v33.75A3.376,3.376,0,0,1,51.125,48.5ZM20.75,41.75h27v-27h-27Z" transform="translate(-14 -8)" style="fill: rgb(71, 106, 111);"/>
    </g>
    <g id="Grupo_180" data-name="Grupo 180" transform="translate(108 87.749)">
      <path id="Trazado_278" data-name="Trazado 278" d="M53.125,53.5H19.375A3.376,3.376,0,0,1,16,50.125V16.375A3.376,3.376,0,0,1,19.375,13h33.75A3.376,3.376,0,0,1,56.5,16.375v33.75A3.376,3.376,0,0,1,53.125,53.5ZM22.75,46.75h27v-27h-27Z" transform="translate(-16 -13)" style="fill: rgb(71, 106, 111);"/>
    </g>
    <g id="Grupo_181" data-name="Grupo 181" transform="translate(23.626 27)">
      <path id="Trazado_279" data-name="Trazado 279" d="M20.375,37.75A16.875,16.875,0,1,1,37.25,20.875,16.9,16.9,0,0,1,20.375,37.75Zm0-27A10.125,10.125,0,1,0,30.5,20.875,10.137,10.137,0,0,0,20.375,10.75Z" transform="translate(-3.5 -4)" style="fill: rgb(71, 106, 111);"/>
    </g>
    <g id="Grupo_182" data-name="Grupo 182" transform="translate(0 0)">
      <path id="Trazado_280" data-name="Trazado 280" d="M45.732,87.749H35.27a6.651,6.651,0,0,1-6.615-6.1l-.837-8.593a31.119,31.119,0,0,1-5.6-3.341l-7.567,3.517A6.574,6.574,0,0,1,6.1,70.429L.872,61.114a6.817,6.817,0,0,1,1.863-8.8l6.75-4.995a26.817,26.817,0,0,1,0-6.9L2.735,35.43a6.826,6.826,0,0,1-1.87-8.8L6.1,17.314a6.576,6.576,0,0,1,8.559-2.8l7.567,3.517a30.886,30.886,0,0,1,5.6-3.341l.837-8.6A6.65,6.65,0,0,1,35.27,0H45.732a6.651,6.651,0,0,1,6.615,6.1l.837,8.593a30.657,30.657,0,0,1,5.6,3.341l7.567-3.517a6.585,6.585,0,0,1,8.559,2.808l5.224,9.315a6.817,6.817,0,0,1-1.863,8.8l-6.75,4.995a26.818,26.818,0,0,1,0,6.9l6.75,4.995a6.826,6.826,0,0,1,1.87,8.8l-5.231,9.322a6.579,6.579,0,0,1-8.552,2.8L58.787,69.72a30.887,30.887,0,0,1-5.6,3.341l-.837,8.6a6.661,6.661,0,0,1-6.622,6.088ZM22.7,62.4a3.379,3.379,0,0,1,2.2.817,24.08,24.08,0,0,0,7.263,4.354A3.369,3.369,0,0,1,34.338,70.4l1.033,10.6L45.732,81l.931-10.6a3.36,3.36,0,0,1,2.173-2.828A24.218,24.218,0,0,0,56.1,63.22a3.389,3.389,0,0,1,3.625-.506l9.463,4.4,5.056-9.3-8.37-6.264a3.394,3.394,0,0,1-1.323-3.28,25.384,25.384,0,0,0,.439-4.394,25.384,25.384,0,0,0-.439-4.394,3.394,3.394,0,0,1,1.323-3.28L74.251,30l-5.238-9.389-9.288,4.421a3.372,3.372,0,0,1-3.625-.506,24.191,24.191,0,0,0-7.263-4.354,3.369,3.369,0,0,1-2.173-2.828l-1.033-10.6L35.27,6.75l-.931,10.6a3.369,3.369,0,0,1-2.173,2.828A24.358,24.358,0,0,0,24.9,24.529a3.373,3.373,0,0,1-3.625.506l-9.463-4.4-5.056,9.3,8.37,6.264a3.382,3.382,0,0,1,1.323,3.274,25.528,25.528,0,0,0-.439,4.4,25.383,25.383,0,0,0,.439,4.394,3.363,3.363,0,0,1-1.323,3.274l-8.377,6.2,5.238,9.389,9.288-4.421A3.409,3.409,0,0,1,22.7,62.4Z" transform="translate(0 0)" style="fill: rgb(71, 106, 111);"/>
    </g>
  </g>
</svg>