<?xml version="1.0" encoding="utf-8"?>
<svg width="163.144" height="171.757" viewBox="0 0 163.144 171.757" xmlns="http://www.w3.org/2000/svg">
  <g id="international_market" transform="translate(-12.844 0)">
    <path id="Trazado_281" data-name="Trazado 281" d="M219.493,78.131a32.5,32.5,0,0,0,19.735,15.4,32.874,32.874,0,0,0,8.776,1.2,32.715,32.715,0,1,0-16.17-61.183h0a32.745,32.745,0,0,0-12.341,44.58Zm14.82-40.2A27.678,27.678,0,1,1,223.87,75.651a27.5,27.5,0,0,1,10.443-37.724Z" transform="translate(-134.53 -19.467)" style="fill: rgb(71, 106, 111);"/>
    <path id="Trazado_282" data-name="Trazado 282" d="M343.948,78.188c.193.342.373.685.535,1.019l4.528-2.19c-.208-.431-.439-.87-.685-1.306a22.53,22.53,0,0,0-9.433-9.017l-2.276,4.485A17.519,17.519,0,0,1,343.948,78.188Z" transform="translate(-215.197 -44.328)" style="fill: rgb(71, 106, 111);"/>
    <path id="Trazado_283" data-name="Trazado 283" d="M364.388,120.707l4.967.794a22.538,22.538,0,0,0-.162-8.058l-4.93,1A17.536,17.536,0,0,1,364.388,120.707Z" transform="translate(-233.572 -75.4)" style="fill: rgb(71, 106, 111);"/>
    <path id="Trazado_284" data-name="Trazado 284" d="M152.095,85.423,149,87.176,141.715,74.31A42.534,42.534,0,0,0,124.768,1.561a42.49,42.49,0,0,0-48.079,19.58,54.345,54.345,0,0,0-9.854-.9A54.009,54.009,0,0,0,16.573,54.475l4.681,1.841a49.827,49.827,0,0,1,3.566-7.261,54.675,54.675,0,0,0,12.948,6.607,90.974,90.974,0,0,0-1.818,16.05h-18a48.933,48.933,0,0,1,1.779-10.865l-4.84-1.372a54.041,54.041,0,0,0,43.47,68.074v19.056H27.442l-8.595,11.755v13.4H39.453v-5.03H23.878V160L30,151.637H58.355v5.51h-5.03v5.03H78.475v-5.03h-5.03v-5.51H101.8L107.922,160v6.724H44.483v5.03h68.469v-13.4l-8.595-11.755H73.445v-18.8a53.991,53.991,0,0,0,46.382-43.225,42.163,42.163,0,0,0,6.286-1.451l7.294,12.876-3.093,1.752L154.2,139.944l9.584,2.652,9.547-5.406,2.653-9.583ZM94.943,9.918a37.5,37.5,0,0,1,54.616,42.63A37.5,37.5,0,1,1,94.943,9.918ZM69.35,122.867V98.034h-5.03v24.837c-5.708-1.072-11.09-5.777-15.368-13.519a59.549,59.549,0,0,1-5.223-13.229A84.117,84.117,0,0,1,66.835,93a84.081,84.081,0,0,1,23.1,3.127,58.057,58.057,0,0,1-5.907,14.427C79.87,117.566,74.734,121.845,69.35,122.867ZM40.981,76.743H64.32V88.011a88.214,88.214,0,0,0-21.739,3.23,86.165,86.165,0,0,1-1.6-14.5Zm-3.214,16.05a54.692,54.692,0,0,0-12.922,6.59,48.626,48.626,0,0,1-6.907-22.639H35.95A91.03,91.03,0,0,0,37.767,92.793Zm53.315-1.565A88.374,88.374,0,0,0,69.35,88.011V76.743h18.8a42.476,42.476,0,0,0,4.4,2.845A85.172,85.172,0,0,1,91.083,91.227ZM69.35,25.587a15.271,15.271,0,0,1,4.435,1.606,42.581,42.581,0,0,0-.949,28.054c-1.156.076-2.319.135-3.486.168Zm-5.03,0v29.83a83.058,83.058,0,0,1-20.591-3.083A59.553,59.553,0,0,1,48.952,39.1C53.23,31.361,58.612,26.656,64.319,25.584Zm5.03,34.864c1.8-.047,3.591-.149,5.364-.3q.773,1.7,1.705,3.351a42.492,42.492,0,0,0,6.05,8.209H69.35ZM27.606,44.87A48.5,48.5,0,0,1,50.864,27.909a41.931,41.931,0,0,0-6.314,8.761,64.35,64.35,0,0,0-5.6,14.084A48.826,48.826,0,0,1,27.606,44.87ZM42.581,57.215a88.231,88.231,0,0,0,21.739,3.23V71.713H40.981a86.165,86.165,0,0,1,1.6-14.5ZM27.652,103.554A48.875,48.875,0,0,1,38.945,97.7a64.367,64.367,0,0,0,5.6,14.084,42.017,42.017,0,0,0,6.263,8.707,49.177,49.177,0,0,1-23.16-16.94Zm40.763,24.657v28.936h-5.03V128.211H66.19c.215,0,.429.008.645.008.243,0,.487-.005.73-.008Zm40.476-28.784a49.755,49.755,0,0,0-7.405-4.312l-2.166,4.54a44.546,44.546,0,0,1,6.774,3.956,48.594,48.594,0,0,1-23.323,16.959,40.5,40.5,0,0,0,5.582-7.444c4.946-8.338,8.12-19.3,9.082-31.192a42.833,42.833,0,0,0,16.059,3.131c.367,0,.734-.008,1.1-.017a48.95,48.95,0,0,1-5.7,14.379Zm21.978-18.1q1.779-.8,3.512-1.778t3.333-2.1l6.911,12.2-6.842,3.876Zm38.173,52.514-5.921,3.353-5.567-1.541L137.169,99.659,150.2,92.28l20.386,35.993Z" transform="translate(0 0)" style="fill: rgb(71, 106, 111);"/>
    <path id="Trazado_285" data-name="Trazado 285" d="M0,0H5.03V5.023H0Z" transform="matrix(0.87, -0.492, 0.492, 0.87, 158.253, 126.973)" style="fill: rgb(71, 106, 111);"/>
    <path id="Trazado_286" data-name="Trazado 286" d="M0,0H5.03V15.953H0Z" transform="matrix(0.87, -0.493, 0.493, 0.87, 148.04, 108.841)" style="fill: rgb(71, 106, 111);"/>
    <path id="Trazado_287" data-name="Trazado 287" d="M261.057,467.178h5.03v5.03h-5.03Z" transform="translate(-164.975 -310.511)" style="fill: rgb(71, 106, 111);"/>
  </g>
</svg>